<?xml version="1.0" standalone="no"?><!-- Generator: Gravit.io --><svg xmlns="http://www.w3.org/2000/svg" xmlns:xlink="http://www.w3.org/1999/xlink" style="isolation:isolate" viewBox="43.026 36.978 488.142 389.395" width="488.142" height="389.395"><g><path d=" M 60.591 259.773 L 145.461 252.971 C 155.156 252.194 163.026 259.46 163.026 269.185 L 163.026 391.307 C 163.026 401.032 155.166 409.672 145.483 410.589 L 60.569 418.632 C 50.887 419.549 43.026 412.397 43.026 402.672 L 43.026 278.802 C 43.026 269.076 50.897 260.55 60.591 259.773 Z " fill="rgb(74,74,74)"/><path d=" M 73.841 409.858 L 73.817 276.181 C 73.815 267.14 81.12 259.095 90.119 258.227 L 159.19 251.565 C 168.189 250.697 175.495 257.333 175.495 266.373 L 175.495 394.103 C 175.495 403.144 168.202 411.315 159.219 412.34 L 90.119 420.219 C 81.136 421.243 73.842 416.601 73.841 409.858 L 73.841 409.858 Z " fill="rgb(162,162,162)"/><path d=" M 58.57 418.754 L 87.188 420.293 C 81.717 419.231 79.571 418.272 77.203 416.867 L 55.688 416.867 L 58.57 418.754 Z " fill="rgb(74,74,74)"/><path d=" M 60.591 141.646 L 145.461 134.845 C 155.156 134.068 163.178 141.332 163.366 151.055 L 165.786 276.757 C 165.973 286.481 158.238 294.759 148.524 295.232 L 46.72 300.186 C 44.681 300.285 43.026 298.709 43.026 296.668 L 43.026 160.675 C 43.026 150.95 50.897 142.423 60.591 141.646 Z " fill="rgb(195,194,194)"/><rect x="380.099" y="242.44" width="8.106" height="160.074" transform="matrix(1,0,0,1,0,0)" fill="rgb(130,130,130)" vector-effect="non-scaling-stroke" stroke-width="1" stroke="rgb(0,0,0)" stroke-linejoin="miter" stroke-linecap="square" stroke-miterlimit="2"/><g><g><path d=" M 197.092 404.932 C 178.343 395.455 174.027 366.186 187.459 339.61 C 200.892 313.035 227.018 299.152 245.767 308.629 C 264.515 318.105 268.832 347.374 255.399 373.95 C 241.967 400.525 215.841 414.408 197.092 404.932 Z " fill="rgb(11,11,11)"/><path d=" M 210.279 405.824 C 192.65 396.914 189.243 368.104 202.675 341.529 C 216.107 314.953 241.325 300.611 258.954 309.521 C 276.582 318.431 279.989 347.241 266.557 373.817 C 253.125 400.392 227.907 414.734 210.279 405.824 Z " fill="rgb(70,70,70)" vector-effect="non-scaling-stroke" stroke-width="1" stroke="rgb(0,0,0)" stroke-linejoin="miter" stroke-linecap="square" stroke-miterlimit="3"/></g></g><line x1="163.159" y1="351.965" x2="227.476" y2="360.714" vector-effect="non-scaling-stroke" stroke-width="1" stroke="rgb(0,0,0)" stroke-linejoin="miter" stroke-linecap="square" stroke-miterlimit="3"/><line x1="163.159" y1="351.965" x2="293.58" y2="319.885" vector-effect="non-scaling-stroke" stroke-width="1" stroke="rgb(0,0,0)" stroke-linejoin="miter" stroke-linecap="square" stroke-miterlimit="3"/><line x1="292.122" y1="319.885" x2="380.099" y2="325.717" vector-effect="non-scaling-stroke" stroke-width="1" stroke="rgb(0,0,0)" stroke-linejoin="miter" stroke-linecap="square" stroke-miterlimit="3"/><line x1="380.099" y1="246.976" x2="380.099" y2="402.515" vector-effect="non-scaling-stroke" stroke-width="1" stroke="rgb(0,0,0)" stroke-linejoin="miter" stroke-linecap="square" stroke-miterlimit="3"/><line x1="292.122" y1="242.44" x2="293.58" y2="381.614" vector-effect="non-scaling-stroke" stroke-width="1" stroke="rgb(0,0,0)" stroke-linejoin="miter" stroke-linecap="square" stroke-miterlimit="3"/><line x1="387.875" y1="246.976" x2="387.875" y2="402.515" vector-effect="non-scaling-stroke" stroke-width="1" stroke="rgb(0,0,0)" stroke-linejoin="miter" stroke-linecap="square" stroke-miterlimit="3"/><rect x="346.357" y="40.328" width="8.106" height="323.762" transform="matrix(0.78,-0.625,0.625,0.78,-49.478,263.567)" fill="rgb(235,235,235)" vector-effect="non-scaling-stroke" stroke-width="1" stroke="rgb(0,0,0)" stroke-linejoin="miter" stroke-linecap="square" stroke-miterlimit="2"/><g><path d=" M 427.142 390.454 C 414.834 373.43 424.435 345.445 448.567 328 C 472.699 310.555 502.283 310.213 514.59 327.238 C 526.897 344.263 517.297 372.248 493.165 389.693 C 469.033 407.138 439.449 407.479 427.142 390.454 Z " fill="rgb(11,11,11)"/><path d=" M 438.447 397.3 C 426.875 381.292 437.072 354.133 461.204 336.688 C 485.336 319.243 514.324 318.076 525.896 334.084 C 537.468 350.092 527.271 377.251 503.139 394.696 C 479.007 412.141 450.019 413.308 438.447 397.3 Z " fill="rgb(70,70,70)" vector-effect="non-scaling-stroke" stroke-width="1" stroke="rgb(0,0,0)" stroke-linejoin="miter" stroke-linecap="square" stroke-miterlimit="3"/></g><rect x="498.311" y="361.273" width="8.106" height="57.561" transform="matrix(0.78,-0.625,0.625,0.78,-133.572,399.867)" fill="rgb(235,235,235)" vector-effect="non-scaling-stroke" stroke-width="1" stroke="rgb(0,0,0)" stroke-linejoin="miter" stroke-linecap="square" stroke-miterlimit="2"/><rect x="291.764" y="242.44" width="8.106" height="139.174" transform="matrix(1,0,0,1,0,0)" fill="rgb(130,130,130)" vector-effect="non-scaling-stroke" stroke-width="1" stroke="rgb(0,0,0)" stroke-linejoin="miter" stroke-linecap="square" stroke-miterlimit="2"/><rect x="223.417" y="370.13" width="8.106" height="54.744" transform="matrix(1,0,0,1,0,0)" fill="rgb(130,130,130)" vector-effect="non-scaling-stroke" stroke-width="1" stroke="rgb(0,0,0)" stroke-linejoin="miter" stroke-linecap="square" stroke-miterlimit="2"/><rect x="160.299" y="361.636" width="8.106" height="52.364" transform="matrix(1,0,0,1,0,0)" fill="rgb(130,130,130)" vector-effect="non-scaling-stroke" stroke-width="1" stroke="rgb(0,0,0)" stroke-linejoin="miter" stroke-linecap="square" stroke-miterlimit="2"/><rect x="283.545" y="112.612" width="8.106" height="23.519" transform="matrix(-0.655,-0.756,0.756,-0.655,381.821,423.208)" fill="rgb(235,235,235)" vector-effect="non-scaling-stroke" stroke-width="1" stroke="rgb(0,0,0)" stroke-linejoin="miter" stroke-linecap="square" stroke-miterlimit="2"/><path d=" M 160.299 361.381 L 163.159 351.965 L 227.476 360.714 L 380.099 325.717 L 380.099 335.134 L 227.476 370.13 L 160.299 361.381 Z " fill="rgb(57,56,56)" vector-effect="non-scaling-stroke" stroke-width="1" stroke="rgb(0,0,0)" stroke-linejoin="miter" stroke-linecap="square" stroke-miterlimit="3"/><path d=" M 227.476 370.13 L 227.476 360.714 L 227.476 370.13 L 380.099 335.134 L 380.099 325.717 L 227.476 360.714" fill="rgb(49,48,48)" vector-effect="non-scaling-stroke" stroke-width="1" stroke="rgb(0,0,0)" stroke-linejoin="miter" stroke-linecap="square" stroke-miterlimit="3"/><path d=" M 163.159 351.965 L 293.58 319.885 L 380.099 325.717 L 227.476 360.714 L 163.159 351.965 Z " fill="rgb(70,70,70)" vector-effect="non-scaling-stroke" stroke-width="1" stroke="rgb(0,0,0)" stroke-linejoin="miter" stroke-linecap="square" stroke-miterlimit="3"/><path d=" M 221.968 143.14 C 179.661 126.619 185.12 81.514 190.815 70.124 C 208.814 33.398 265.102 38.527 267.761 38.956 C 324.746 43.568 316.271 118.483 372.881 135.133 C 409.34 144.61 446.102 119.161 454.812 90.008" fill="none" vector-effect="non-scaling-stroke" stroke-width="1" stroke-dasharray="8" stroke="rgb(0,0,0)" stroke-linejoin="miter" stroke-linecap="square" stroke-miterlimit="3"/><g><path d=" M 73.841 291.732 L 73.817 158.055 C 73.815 149.014 81.12 140.969 90.119 140.101 L 159.19 133.439 C 168.189 132.571 175.495 139.206 175.495 148.247 L 175.495 275.976 C 175.495 285.017 168.202 293.189 159.219 294.213 L 90.119 302.093 C 81.136 303.117 73.842 298.474 73.841 291.732 L 73.841 291.732 Z " fill="rgb(235,235,235)"/><path d="M 187.355 157.214 L 193.112 204.466 C 194.722 217.673 187.662 229.455 177.358 230.761 L 177.358 230.761 C 167.054 232.067 157.381 222.405 155.772 209.198 L 150.015 161.946 C 148.406 148.739 155.465 136.957 165.769 135.651 L 165.769 135.651 C 176.073 134.345 185.746 144.007 187.355 157.214 Z" style="stroke:none;fill:#D2BB88;stroke-miterlimit:10;"/><path d="M 133.624 174.853 L 112.548 215.433 C 106.226 227.607 93.173 233.212 83.419 227.942 L 83.419 227.942 C 73.664 222.673 70.878 208.511 77.201 196.338 L 98.277 155.758 C 104.599 143.584 117.652 137.979 127.406 143.248 L 127.406 143.248 C 137.161 148.518 139.947 162.679 133.624 174.853 Z" style="stroke:none;fill:#F4D99F;stroke-miterlimit:10;"/><path d="M 167.609 230.473 L 123.352 231.377 C 109.637 231.657 98.323 222.746 98.102 211.491 L 98.102 211.491 C 97.881 200.235 108.836 190.87 122.551 190.59 L 166.808 189.686 C 180.523 189.406 191.837 198.317 192.058 209.572 L 192.058 209.572 C 192.279 220.827 181.323 230.193 167.609 230.473 Z" style="stroke:none;fill:#F4D99F;stroke-miterlimit:10;"/><ellipse vector-effect="non-scaling-stroke" cx="111.18008665845193" cy="100.71020509857745" rx="2.324874263536941" ry="2.3710760279155636" fill="rgb(0,0,0)"/><ellipse vector-effect="non-scaling-stroke" cx="139.30664240719304" cy="95.96805304274638" rx="2.324874263536941" ry="2.3710760279155636" fill="rgb(0,0,0)"/><path d=" M 115.495 129.013 C 122.885 123.333 124.704 118.77 136.578 124.395" fill="none" vector-effect="non-scaling-stroke" stroke-width="1" stroke="rgb(0,0,0)" stroke-linejoin="miter" stroke-linecap="square" stroke-miterlimit="3"/><path d="M 84.72 158.211 L 106.557 198.352 C 113.113 210.402 110.598 224.619 100.946 230.081 L 100.946 230.081 C 91.294 235.543 78.135 230.194 71.58 218.144 L 49.743 178.002 C 43.188 165.952 45.702 151.735 55.354 146.274 L 55.354 146.274 C 65.007 140.812 78.165 146.161 84.72 158.211 Z" style="stroke:none;fill:#DBC38E;stroke-miterlimit:10;"/><ellipse vector-effect="non-scaling-stroke" cx="115.49507336641358" cy="105.03594899563413" rx="36.34489305041689" ry="37.067167889713744" fill="rgb(244,217,159)"/><path d="M 187.716 156.593 L 191.085 203.178 C 192.062 216.699 184.127 228.333 173.376 229.142 L 173.376 229.142 C 162.625 229.95 153.102 219.629 152.125 206.108 L 148.756 159.523 C 147.778 146.002 155.713 134.368 166.465 133.559 L 166.465 133.559 C 177.216 132.751 186.738 143.071 187.716 156.593 Z" style="stroke:none;fill:#F4D99F;stroke-miterlimit:10;"/><path d="M 133.624 173.833 L 112.548 214.413 C 106.226 226.587 93.173 232.192 83.419 226.922 L 83.419 226.922 C 73.664 221.653 70.878 207.491 77.201 195.318 L 98.277 154.738 C 104.599 142.564 117.652 136.959 127.406 142.228 L 127.406 142.228 C 137.161 147.498 139.947 161.659 133.624 173.833 Z" style="stroke:none;fill:#F4D99F;stroke-miterlimit:10;"/><ellipse vector-effect="non-scaling-stroke" cx="111.18008665845193" cy="99.69033229723796" rx="2.324874263536941" ry="2.3710760279155636" fill="rgb(0,0,0)"/><ellipse vector-effect="non-scaling-stroke" cx="139.30664240719304" cy="94.94818024140687" rx="2.324874263536941" ry="2.3710760279155636" fill="rgb(0,0,0)"/><path d=" M 115.495 127.993 C 122.885 122.313 124.704 117.75 136.578 123.375" fill="none" vector-effect="non-scaling-stroke" stroke-width="1" stroke="rgb(0,0,0)" stroke-linejoin="miter" stroke-linecap="square" stroke-miterlimit="3"/><path d="M 85.72 156.171 L 107.557 196.312 C 114.113 208.362 111.598 222.58 101.946 228.041 L 101.946 228.041 C 92.294 233.503 79.135 228.154 72.58 216.104 L 50.743 175.963 C 44.188 163.913 46.702 149.696 56.354 144.234 L 56.354 144.234 C 66.007 138.772 79.165 144.121 85.72 156.171 Z" style="stroke:none;fill:#F4D99F;stroke-miterlimit:10;"/><path d="M 170.853 231.293 L 121.261 232.305 C 109.394 232.548 99.623 225.802 99.455 217.25 L 99.455 217.25 C 99.287 208.699 108.785 201.56 120.653 201.317 L 170.244 200.305 C 182.112 200.062 191.883 206.808 192.051 215.36 L 192.051 215.36 C 192.219 223.911 182.72 231.05 170.853 231.293 Z" style="stroke:none;fill:#D2BB88;stroke-miterlimit:10;"/><path d="M 168.152 229.877 L 124.172 230.775 C 110.381 231.056 99.003 222.045 98.78 210.664 L 98.78 210.664 C 98.556 199.283 109.571 189.815 123.362 189.533 L 167.343 188.635 C 181.134 188.354 192.512 197.365 192.735 208.746 L 192.735 208.746 C 192.959 220.127 181.943 229.595 168.152 229.877 Z" style="stroke:none;fill:#F4D99F;stroke-miterlimit:10;"/><path d="M 168.152 229.877 L 124.172 230.775 C 110.381 231.056 99.003 222.045 98.78 210.664 L 98.78 210.664 C 98.556 199.283 109.571 189.815 123.362 189.533 L 167.343 188.635 C 181.134 188.354 192.512 197.365 192.735 208.746 L 192.735 208.746 C 192.959 220.127 181.943 229.595 168.152 229.877 Z" style="fill:none;stroke:#D2BB88;stroke-width:1;stroke-linecap:square;stroke-miterlimit:2;"/><path d=" M 134.433 149.729 C 135.087 161.083 128.191 181.618 125.152 190.077 C 128.185 185.995 135.836 170.519 136.578 164.783 C 137.394 159.757 137.054 153.396 134.433 149.729 Z " fill="rgb(210,187,136)"/><line x1="92.569" y1="167.163" x2="80.235" y2="192.659" vector-effect="non-scaling-stroke" stroke-width="1" stroke="rgb(210,187,136)" stroke-linejoin="miter" stroke-linecap="square" stroke-miterlimit="3"/><path d=" M 169.652 180.803 L 170.777 203.113 L 191.027 203.113 C 191.704 202.745 190.464 196.253 187.277 183.608 L 169.652 180.803 Z " fill="rgb(244,217,159)"/><path d=" M 109.732 141.836 C 124.776 141.86 148.997 130.08 151.84 108.641 C 151.477 114.901 146.325 126.605 141.902 131.34 C 132.526 141.378 113.355 143.578 109.732 141.836 Z " fill="rgb(210,187,136)"/></g><g><path d=" M 326.717 400.638 L 337.426 395.819 L 336.734 397.637 L 327.587 402.225 L 326.717 400.638 Z " fill="rgb(255,255,255)" vector-effect="non-scaling-stroke" stroke-width="1" stroke="rgb(0,0,0)" stroke-linejoin="miter" stroke-linecap="square" stroke-miterlimit="3"/><path d=" M 350.15 406.812 L 358.402 392.213 L 351.794 395.819 L 343.685 410.101 L 350.15 406.812 Z " fill="rgb(118,113,120)" vector-effect="non-scaling-stroke" stroke-width="1" stroke="rgb(0,0,0)" stroke-linejoin="miter" stroke-linecap="square" stroke-miterlimit="3"/><path d=" M 327.587 378.551 L 334.57 375.305 L 340.781 379.006 L 345.8 376.921 L 346.688 376.539 L 350.15 376.539 L 343.348 379.893 L 327.587 378.551 Z " fill="rgb(162,157,163)" vector-effect="non-scaling-stroke" stroke-width="1" stroke="rgb(0,0,0)" stroke-linejoin="miter" stroke-linecap="square" stroke-miterlimit="3"/><path d=" M 321.413 390.02 L 327.587 378.551 L 343.348 379.893 L 351.794 395.819 L 343.685 410.101 L 328.862 408.63" fill="rgb(137,132,138)" vector-effect="non-scaling-stroke" stroke-width="1" stroke="rgb(0,0,0)" stroke-linejoin="miter" stroke-linecap="square" stroke-miterlimit="3"/><path d=" M 322.611 392.963 L 328.862 383.538 L 339.879 384.317 L 345.8 395.819 L 340.781 406.293 L 328.862 404.744 L 322.611 392.963 Z " fill="rgb(125,122,129)" vector-effect="non-scaling-stroke" stroke-width="1" stroke="rgb(0,0,0)" stroke-linejoin="miter" stroke-linecap="square" stroke-miterlimit="3"/><path d=" M 327.587 378.551 L 329.045 383.538 L 339.879 384.317 L 343.348 379.893" fill="rgb(103,100,109)" vector-effect="non-scaling-stroke" stroke-width="1" stroke="rgb(0,0,0)" stroke-linejoin="miter" stroke-linecap="square" stroke-miterlimit="3"/><line x1="327.587" y1="378.551" x2="328.959" y2="383.538" vector-effect="non-scaling-stroke" stroke-width="1" stroke="rgb(0,0,0)" stroke-linejoin="miter" stroke-linecap="square" stroke-miterlimit="3"/><line x1="351.794" y1="395.819" x2="345.8" y2="395.819" vector-effect="non-scaling-stroke" stroke-width="1" stroke="rgb(0,0,0)" stroke-linejoin="miter" stroke-linecap="square" stroke-miterlimit="3"/><line x1="343.685" y1="410.101" x2="340.781" y2="406.293" vector-effect="non-scaling-stroke" stroke-width="1" stroke="rgb(0,0,0)" stroke-linejoin="miter" stroke-linecap="square" stroke-miterlimit="3"/><path d=" M 350.15 376.539 L 358.402 392.213 L 351.794 395.819 L 343.685 379.893 L 350.15 376.539 Z " fill="rgb(94,92,105)" vector-effect="non-scaling-stroke" stroke-width="1" stroke="rgb(0,0,0)" stroke-linejoin="miter" stroke-linecap="square" stroke-miterlimit="3"/><path d=" M 323.664 394.694 L 332.691 391.102 C 335.918 389.857 338.885 394.7 336.734 397.637 L 327.587 402.225" fill="rgb(93,89,103)" vector-effect="non-scaling-stroke" stroke-width="1" stroke="rgb(0,0,0)" stroke-linejoin="miter" stroke-linecap="square" stroke-miterlimit="3"/><path d=" M 304.217 387.596 L 320.547 389.328 L 312.93 392.963 L 295.533 391.751 L 304.217 387.596 Z " fill="rgb(197,194,201)" vector-effect="non-scaling-stroke" stroke-width="1" stroke="rgb(0,0,0)" stroke-linejoin="miter" stroke-linecap="square" stroke-miterlimit="3"/><path d=" M 329.549 406.293 L 320.547 389.328 L 312.93 392.963 L 321.74 410.101 L 329.549 406.293 Z " fill="rgb(115,113,126)" vector-effect="non-scaling-stroke" stroke-width="1" stroke="rgb(0,0,0)" stroke-linejoin="miter" stroke-linecap="square" stroke-miterlimit="3"/><path d=" M 321.413 421.007 L 329.549 406.293 L 321.74 410.101 L 312.93 424.874 L 321.413 421.007 Z " fill="rgb(98,95,106)" vector-effect="non-scaling-stroke" stroke-width="1" stroke="rgb(0,0,0)" stroke-linejoin="miter" stroke-linecap="square" stroke-miterlimit="3"/><path d=" M 296.138 396.945 L 308.391 398.33 L 314.575 410.967 L 309.641 421.007 L 297.523 419.709 L 291.205 407.331 L 296.138 396.945 Z " fill="rgb(127,122,129)" vector-effect="non-scaling-stroke" stroke-width="1" stroke="rgb(0,0,0)" stroke-linejoin="miter" stroke-linecap="square" stroke-miterlimit="3"/><path d=" M 295.533 391.751 L 296.138 396.945 L 308.391 398.33 L 312.93 392.963 L 321.74 410.101 L 314.575 410.967 L 308.391 398.33 L 312.93 392.963 L 295.533 391.751 Z " fill="rgb(89,87,101)" vector-effect="non-scaling-stroke" stroke-width="1" stroke="rgb(0,0,0)" stroke-linejoin="miter" stroke-linecap="square" stroke-miterlimit="3"/><path d=" M 288.348 406.293 L 295.533 391.751 L 296.138 396.945 L 291.205 406.812 L 288.348 406.293 Z " fill="rgb(109,106,120)" vector-effect="non-scaling-stroke" stroke-width="1" stroke="rgb(0,0,0)" stroke-linejoin="miter" stroke-linecap="square" stroke-miterlimit="3"/><path d=" M 297.004 423.171 L 288.348 406.293 L 291.205 406.812 L 297.523 419.709 L 297.004 423.171 Z " fill="rgb(91,89,100)" vector-effect="non-scaling-stroke" stroke-width="1" stroke="rgb(0,0,0)" stroke-linejoin="miter" stroke-linecap="square" stroke-miterlimit="3"/><path d=" M 312.93 424.773 L 309.641 421.007 L 314.575 410.967 L 321.74 410.101 L 312.93 424.773 Z " fill="rgb(109,106,120)" vector-effect="non-scaling-stroke" stroke-width="1" stroke="rgb(0,0,0)" stroke-linejoin="miter" stroke-linecap="square" stroke-miterlimit="3"/><path d=" M 312.66 424.773 L 297.004 423.171 L 297.523 419.709 L 309.641 421.007 L 312.66 424.773 Z " fill="rgb(37,31,43)" vector-effect="non-scaling-stroke" stroke-width="1" stroke="rgb(0,0,0)" stroke-linejoin="miter" stroke-linecap="square" stroke-miterlimit="3"/><line x1="400.007" y1="407.966" x2="412.291" y2="387.596" vector-effect="non-scaling-stroke" stroke-width="1" stroke="rgb(0,0,0)" stroke-linejoin="miter" stroke-linecap="square" stroke-miterlimit="3"/><path d=" M 331.908 359.985 L 330.74 356.804 L 327.587 363.591 L 327.587 370.208 L 331.908 359.985 Z " fill="rgb(150,145,150)" vector-effect="non-scaling-stroke" stroke-width="1" stroke="rgb(0,0,0)" stroke-linejoin="miter" stroke-linecap="square" stroke-miterlimit="3"/><path d=" M 337.426 346.157 L 342.165 344.21 L 331.908 359.985 L 330.74 356.349 L 337.426 346.157 Z " fill="rgb(160,155,161)" vector-effect="non-scaling-stroke" stroke-width="1" stroke="rgb(0,0,0)" stroke-linejoin="miter" stroke-linecap="square" stroke-miterlimit="3"/><path d=" M 345.8 341.289 L 337.426 346.157 L 342.165 344.21 L 345.8 341.289 Z " fill="rgb(255,255,255)" vector-effect="non-scaling-stroke" stroke-width="1" stroke="rgb(0,0,0)" stroke-linejoin="miter" stroke-linecap="square" stroke-miterlimit="3"/><path d=" M 359.109 349.209 L 345.8 341.289 L 342.165 344.664 L 355.149 353.039 L 359.109 349.209 Z " fill="rgb(186,181,188)" vector-effect="non-scaling-stroke" stroke-width="1" stroke="rgb(0,0,0)" stroke-linejoin="miter" stroke-linecap="square" stroke-miterlimit="3"/><path d=" M 345.8 367.775 L 355.149 353.039 L 342.165 344.664 L 331.908 359.985 L 345.8 367.775 Z " fill="rgb(147,143,156)" vector-effect="non-scaling-stroke" stroke-width="1" stroke="rgb(0,0,0)" stroke-linejoin="miter" stroke-linecap="square" stroke-miterlimit="3"/><path d=" M 340.781 379.006 L 345.8 367.775 L 331.908 359.985 L 327.587 370.761 L 340.781 379.006 Z " fill="rgb(112,108,116)" vector-effect="non-scaling-stroke" stroke-width="1" stroke="rgb(0,0,0)" stroke-linejoin="miter" stroke-linecap="square" stroke-miterlimit="3"/><path d=" M 345.8 376.539 L 349.631 368.684 L 345.8 367.775 L 340.899 378.551 L 345.8 376.539 Z " fill="rgb(103,101,112)" vector-effect="non-scaling-stroke" stroke-width="1" stroke="rgb(0,0,0)" stroke-linejoin="miter" stroke-linecap="square" stroke-miterlimit="3"/><path d=" M 356.317 357.713 L 355.149 353.039 L 345.8 367.775 L 349.631 368.684 L 356.317 357.713 Z " fill="rgb(110,108,120)" vector-effect="non-scaling-stroke" stroke-width="1" stroke="rgb(0,0,0)" stroke-linejoin="miter" stroke-linecap="square" stroke-miterlimit="3"/><path d=" M 359.109 355.246 L 359.109 349.209 L 355.149 353.039 L 356.317 357.713 L 359.109 355.246 Z " fill="rgb(167,160,171)" vector-effect="non-scaling-stroke" stroke-width="1" stroke="rgb(0,0,0)" stroke-linejoin="miter" stroke-linecap="square" stroke-miterlimit="3"/><path d=" M 349.176 373.293 L 351.124 369.203 L 354.37 363.591 L 355.149 362.711 L 356.966 359.985 L 359.109 355.7 L 356.317 357.713 L 349.631 368.684 L 345.8 376.539 L 349.176 373.293 Z " fill="rgb(91,89,103)" vector-effect="non-scaling-stroke" stroke-width="1" stroke="rgb(0,0,0)" stroke-linejoin="miter" stroke-linecap="square" stroke-miterlimit="3"/><path d=" M 388.451 382.403 L 384.311 389.674 L 351.124 369.463 L 355.149 362.711 L 388.451 382.403 Z " fill="rgb(101,99,113)" vector-effect="non-scaling-stroke" stroke-width="1" stroke="rgb(0,0,0)" stroke-linejoin="miter" stroke-linecap="square" stroke-miterlimit="3"/><path d=" M 391.409 378.551 L 388.451 382.403 L 384.311 390.02 L 379.983 396.945 L 379.637 403.061 L 385.927 392.963 L 384.463 390.02 L 385.927 392.963 L 395.506 376.921 L 391.409 378.551 Z " fill="rgb(134,132,136)" vector-effect="non-scaling-stroke" stroke-width="1" stroke="rgb(0,0,0)" stroke-linejoin="miter" stroke-linecap="square" stroke-miterlimit="3"/><path d=" M 393.544 375.305 L 391.409 378.551 L 395.506 377.267 L 398.218 373.293 L 393.544 375.305 Z " fill="rgb(216,213,221)" vector-effect="non-scaling-stroke" stroke-width="1" stroke="rgb(0,0,0)" stroke-linejoin="miter" stroke-linecap="square" stroke-miterlimit="3"/><path d=" M 412.291 380.759 L 398.218 373.293 L 395.506 377.267 L 409.239 384.884 L 412.291 380.759 Z " fill="rgb(155,152,161)" vector-effect="non-scaling-stroke" stroke-width="1" stroke="rgb(0,0,0)" stroke-linejoin="miter" stroke-linecap="square" stroke-miterlimit="3"/><path d=" M 412.291 387.596 L 412.471 380.759 L 409.239 384.884 L 410.163 390.02 L 412.291 387.596 Z " fill="rgb(177,171,183)" vector-effect="non-scaling-stroke" stroke-width="1" stroke="rgb(0,0,0)" stroke-linejoin="miter" stroke-linecap="square" stroke-miterlimit="3"/><path d=" M 403.642 400.638 L 399.314 401.388 L 409.239 385.288 L 410.163 390.02 L 403.642 400.638 Z " fill="rgb(135,133,147)" vector-effect="non-scaling-stroke" stroke-width="1" stroke="rgb(0,0,0)" stroke-linejoin="miter" stroke-linecap="square" stroke-miterlimit="3"/><path d=" M 393.544 411.428 L 400.007 407.966 L 403.642 400.638 L 399.314 401.388 L 385.927 392.963 L 379.637 403.061 L 393.544 411.428 Z " fill="rgb(81,78,89)" vector-effect="non-scaling-stroke" stroke-width="1" stroke="rgb(0,0,0)" stroke-linejoin="miter" stroke-linecap="square" stroke-miterlimit="3"/><path d=" M 399.314 401.388 L 386.244 392.963 L 395.506 377.267 L 409.239 384.884 L 399.314 401.388 L 393.544 411.428" fill="rgb(155,152,164)" vector-effect="non-scaling-stroke" stroke-width="1" stroke="rgb(0,0,0)" stroke-linejoin="miter" stroke-linecap="square" stroke-miterlimit="3"/><path d=" M 352.012 368.282 L 385.17 388.082 L 384.463 389.674 L 351.124 369.463 L 352.012 368.282 Z " fill="rgb(74,73,83)" vector-effect="non-scaling-stroke" stroke-width="1" stroke="rgb(0,0,0)" stroke-linejoin="miter" stroke-linecap="square" stroke-miterlimit="3"/><path d=" M 339.879 379.556 L 346.299 376.539 L 349.631 376.539 L 343.685 379.893 L 339.879 379.556 Z " fill="rgb(2,1,6)" vector-effect="non-scaling-stroke" stroke-width="1" stroke="rgb(0,0,0)" stroke-linejoin="miter" stroke-linecap="square" stroke-miterlimit="3"/><path d=" M 326.717 400.638 L 337.426 395.819 C 337.477 396.488 337.251 397.099 336.734 397.637 L 327.587 402.225 L 326.717 400.638 Z " fill="rgb(62,59,68)" vector-effect="non-scaling-stroke" stroke-width="1" stroke="rgb(0,0,0)" stroke-linejoin="miter" stroke-linecap="square" stroke-miterlimit="3"/></g><path d=" M 518.766 327.516 C 512.781 323.797 506.088 319.932 498.656 316.828 L 503.045 322.216 C 506.461 322.005 511.711 323.782 518.766 327.516 Z " fill="rgb(11,11,11)" vector-effect="non-scaling-stroke" stroke-width="1" stroke="rgb(0,0,0)" stroke-linejoin="miter" stroke-linecap="square" stroke-miterlimit="3"/><path d=" M 46.25 300.187 L 87.188 302.167 C 81.717 301.105 79.243 299.884 76.875 298.478 L 55.688 298.478 L 46.25 300.187 Z " fill="rgb(195,194,194)"/><g><path d=" M 451.728 86.461 C 450.506 85.005 451.976 81.756 455.009 79.209 C 458.041 76.662 461.496 75.776 462.719 77.232 C 463.941 78.688 462.471 81.937 459.438 84.484 C 456.405 87.031 452.951 87.917 451.728 86.461 Z " fill="rgb(59,59,59)"/><path d=" M 454.145 75.94 C 451.444 74.32 448.535 74.198 447.652 75.67 C 446.769 77.141 448.245 79.651 450.946 81.271 C 453.646 82.892 456.555 83.013 457.438 81.542 C 458.321 80.071 456.845 77.561 454.145 75.94 Z " fill="rgb(235,235,235)"/><path d=" M 452.115 76.886 C 451.613 73.776 452.58 71.03 454.274 70.756 C 455.968 70.483 457.751 72.785 458.253 75.895 C 458.755 79.004 457.787 81.75 456.093 82.024 C 454.4 82.297 452.617 79.995 452.115 76.886 Z " fill="rgb(235,235,235)"/></g><line x1="127.125" y1="298.478" x2="127.125" y2="415.045" vector-effect="non-scaling-stroke" stroke-width="1" stroke="rgb(0,0,0)" stroke-linejoin="miter" stroke-linecap="square" stroke-miterlimit="3"/></g></svg>