<?xml version="1.0" standalone="no"?><!-- Generator: Gravit.io --><svg xmlns="http://www.w3.org/2000/svg" xmlns:xlink="http://www.w3.org/1999/xlink" style="isolation:isolate" viewBox="140.974 110 360.354 355" width="360.354" height="355"><g><path d=" M 266 134 L 493 110 L 493 465 L 266 421 L 266 134 Z " fill="rgb(235,235,235)"/><path d=" M 303 178 L 442 169 L 442 213 L 303 213 L 303 178 Z " fill="rgb(255,255,255)"/><ellipse vector-effect="non-scaling-stroke" cx="375.5" cy="201" rx="22.5" ry="23" fill="rgb(198,174,124)"/><path d=" M 329.5 176.125 L 329.5 213 L 303 213 L 303 178 L 329.5 176.125 Z " fill="rgb(128,128,128)"/><rect x="353" y="213" width="53" height="21" transform="matrix(1,0,0,1,0,0)" fill="rgb(235,235,235)"/><g><g><g><path d=" M 153.884 317.091 L 216.259 312.093 C 223.384 311.522 229.168 316.861 229.168 324.009 L 229.168 413.762 C 229.168 420.91 223.391 427.26 216.275 427.934 L 153.867 433.845 C 146.752 434.519 140.974 429.263 140.974 422.115 L 140.974 331.077 C 140.974 323.929 146.759 317.662 153.884 317.091 Z " fill="rgb(74,74,74)"/><path d=" M 163.622 427.397 L 163.604 329.151 C 163.603 322.506 168.971 316.594 175.585 315.956 L 226.349 311.059 C 232.963 310.421 238.332 315.298 238.332 321.942 L 238.332 415.817 C 238.332 422.462 232.972 428.468 226.37 429.22 L 175.585 435.011 C 168.983 435.764 163.622 432.352 163.622 427.397 L 163.622 427.397 Z " fill="rgb(162,162,162)"/><path d=" M 152.398 433.935 L 173.431 435.066 C 169.41 434.285 167.833 433.58 166.093 432.547 L 150.28 432.547 L 152.398 433.935 Z " fill="rgb(74,74,74)"/><path d=" M 153.884 230.274 L 216.259 225.276 C 223.384 224.705 229.28 230.043 229.418 237.189 L 231.196 329.574 C 231.334 336.72 225.649 342.804 218.51 343.152 L 143.689 346.793 C 142.191 346.866 140.974 345.707 140.974 344.207 L 140.974 244.26 C 140.974 237.112 146.759 230.845 153.884 230.274 Z " fill="rgb(195,194,194)"/></g><g><path d=" M 163.622 340.58 L 163.604 242.334 C 163.603 235.689 168.971 229.777 175.585 229.139 L 226.349 224.242 C 232.963 223.604 238.332 228.481 238.332 235.125 L 238.332 329 C 238.332 335.645 232.972 341.651 226.37 342.403 L 175.585 348.194 C 168.983 348.947 163.622 345.535 163.622 340.58 L 163.622 340.58 Z " fill="rgb(235,235,235)"/><path d="M 247.049 241.716 L 251.28 276.443 C 252.463 286.15 247.274 294.809 239.701 295.769 L 239.701 295.769 C 232.128 296.729 225.02 289.628 223.837 279.921 L 219.605 245.194 C 218.423 235.487 223.611 226.828 231.184 225.868 L 231.184 225.868 C 238.757 224.908 245.866 232.009 247.049 241.716 Z" style="stroke:none;fill:#D2BB88;stroke-miterlimit:10;"/><ellipse vector-effect="non-scaling-stroke" cx="191.06390924676955" cy="200.1883051914021" rx="1.7086660295432523" ry="1.7426220101039291" fill="rgb(0,0,0)"/><ellipse vector-effect="non-scaling-stroke" cx="211.73551763853442" cy="196.70306117119426" rx="1.7086660295432523" ry="1.7426220101039291" fill="rgb(0,0,0)"/><path d=" M 194.235 220.989 C 199.666 216.815 201.003 213.461 209.73 217.595" fill="none" vector-effect="non-scaling-stroke" stroke-width="1" stroke="rgb(0,0,0)" stroke-linejoin="miter" stroke-linecap="square" stroke-miterlimit="3"/><path d="M 171.617 242.448 L 187.666 271.95 C 192.484 280.806 190.636 291.255 183.542 295.269 L 183.542 295.269 C 176.448 299.283 166.778 295.352 161.96 286.496 L 145.911 256.994 C 141.093 248.138 142.941 237.689 150.035 233.675 L 150.035 233.675 C 157.129 229.661 166.8 233.592 171.617 242.448 Z" style="stroke:none;fill:#DBC38E;stroke-miterlimit:10;"/><ellipse vector-effect="non-scaling-stroke" cx="194.2352081516007" cy="203.3675100909221" rx="26.711674294227123" ry="27.24251009092214" fill="rgb(244,217,159)"/><path d="M 247.314 241.259 L 249.79 275.497 C 250.508 285.434 244.677 293.985 236.775 294.579 L 236.775 294.579 C 228.873 295.173 221.875 287.588 221.156 277.651 L 218.68 243.413 C 217.962 233.475 223.794 224.925 231.695 224.331 L 231.695 224.331 C 239.597 223.736 246.595 231.322 247.314 241.259 Z" style="stroke:none;fill:#F4D99F;stroke-miterlimit:10;"/><ellipse vector-effect="non-scaling-stroke" cx="191.06390924676955" cy="199.4387498122425" rx="1.7086660295432523" ry="1.7426220101039291" fill="rgb(0,0,0)"/><ellipse vector-effect="non-scaling-stroke" cx="211.73551763853442" cy="195.95350579203463" rx="1.7086660295432523" ry="1.7426220101039291" fill="rgb(0,0,0)"/><ellipse vector-effect="non-scaling-stroke" cx="363.0541292460473" cy="194.9604391610904" rx="1.7086660295432239" ry="1.7426220101039291" fill="rgb(0,0,0)"/><ellipse vector-effect="non-scaling-stroke" cx="381.8041292460473" cy="194.21088378193073" rx="1.7086660295432239" ry="1.7426220101039291" fill="rgb(0,0,0)"/><path d="M 216.34 271.996 L 189.427 292.123 C 181.353 298.161 170.923 297.702 166.15 291.098 L 166.15 291.098 C 161.377 284.494 164.057 274.231 172.13 268.193 L 199.043 248.066 C 207.117 242.028 217.547 242.487 222.32 249.091 L 222.32 249.091 C 227.093 255.695 224.414 265.958 216.34 271.996 Z" style="stroke:none;fill:#F4D99F;stroke-miterlimit:10;"/><path d="M 216.34 271.996 L 189.427 292.123 C 181.353 298.161 170.923 297.702 166.15 291.098 L 166.15 291.098 C 161.377 284.494 164.057 274.231 172.13 268.193 L 199.043 248.066 C 207.117 242.028 217.547 242.487 222.32 249.091 L 222.32 249.091 C 227.093 255.695 224.414 265.958 216.34 271.996 Z" style="fill:none;stroke:#D2BB88;stroke-width:1;stroke-linecap:square;stroke-miterlimit:2;"/><path d=" M 197.131 222.187 C 189.959 221.934 188.469 215.719 197.131 214.172" fill="none" vector-effect="non-scaling-stroke" stroke-width="1" stroke="rgb(0,0,0)" stroke-linejoin="miter" stroke-linecap="square" stroke-miterlimit="3"/><path d="M 172.352 240.949 L 188.401 270.451 C 193.219 279.307 191.371 289.756 184.277 293.77 L 184.277 293.77 C 177.183 297.784 167.513 293.853 162.695 284.997 L 146.646 255.495 C 141.828 246.639 143.676 236.19 150.77 232.176 L 150.77 232.176 C 157.864 228.162 167.535 232.093 172.352 240.949 Z" style="stroke:none;fill:#F4D99F;stroke-linecap:square;stroke-miterlimit:2;"/><path d="M 273.021 274.549 L 253.104 289.008 C 243.489 295.987 232.688 297.521 228.999 292.431 L 228.999 292.431 C 225.311 287.341 230.122 277.542 239.736 270.563 L 259.654 256.104 C 269.269 249.125 280.07 247.591 283.759 252.681 L 283.759 252.681 C 287.447 257.771 282.636 267.57 273.021 274.549 Z" style="stroke:none;fill:#D2BB88;stroke-linecap:square;stroke-miterlimit:2;"/><path d="M 232.583 269.792 L 259.408 248.377 C 266.901 242.396 276.77 242.29 281.434 248.142 L 281.434 248.142 C 286.098 253.993 283.801 263.6 276.308 269.582 L 249.483 290.996 C 241.991 296.978 232.121 297.083 227.457 291.232 L 227.457 291.232 C 222.794 285.38 225.09 275.773 232.583 269.792 Z" style="stroke:none;fill:#F4D99F;stroke-linecap:square;stroke-miterlimit:2;"/><path d="M 232.583 269.792 L 259.408 248.377 C 266.901 242.396 276.77 242.29 281.434 248.142 L 281.434 248.142 C 286.098 253.993 283.801 263.6 276.308 269.582 L 249.483 290.996 C 241.991 296.978 232.121 297.083 227.457 291.232 L 227.457 291.232 C 222.794 285.38 225.09 275.773 232.583 269.792 Z" style="fill:none;stroke:#D2BB88;stroke-width:1;stroke-linecap:square;stroke-miterlimit:2;"/><path d=" M 224.479 258.498 C 220.762 265.984 208.547 277.128 203.526 281.422 C 206.949 279.92 217.06 272.281 219.622 268.889 C 221.974 265.978 224.817 261.793 224.479 258.498 Z " fill="rgb(210,187,136)"/><line x1="187.12" y1="257" x2="169.167" y2="270.219" vector-effect="non-scaling-stroke" stroke-width="1" stroke="rgb(210,187,136)" stroke-linejoin="miter" stroke-linecap="square" stroke-miterlimit="3"/><path d=" M 190 230.414 C 201.056 230.431 218.858 221.773 220.947 206.017 C 220.68 210.617 216.894 219.219 213.643 222.699 C 206.752 230.077 192.662 231.694 190 230.414 Z " fill="rgb(210,187,136)"/></g></g><g><path d=" M 143.344 346.794 L 173.431 348.249 C 169.41 347.468 167.592 346.571 165.851 345.538 L 150.28 345.538 L 143.344 346.794 Z " fill="rgb(195,194,194)"/><line x1="202.783" y1="345.538" x2="202.783" y2="431.209" vector-effect="non-scaling-stroke" stroke-width="1" stroke="rgb(0,0,0)" stroke-linejoin="miter" stroke-linecap="square" stroke-miterlimit="3"/></g></g><path d=" M 493 464.203 L 501.328 460.828 L 501.328 111.75 L 493 110 L 493 464.203 Z " fill="rgb(183,183,183)"/></g></svg>