<?xml version="1.0" standalone="no"?><!-- Generator: Gravit.io --><svg xmlns="http://www.w3.org/2000/svg" xmlns:xlink="http://www.w3.org/1999/xlink" style="isolation:isolate" viewBox="0 0 595.276 841.89" width="595.276" height="841.89"><defs><clipPath id="_clipPath_rMtJUR08K1QBwZa88DvrrsO6QMBa4Cd4"><rect width="595.276" height="841.89"/></clipPath></defs><g clip-path="url(#_clipPath_rMtJUR08K1QBwZa88DvrrsO6QMBa4Cd4)"><rect x="-121.085" y="7.642" width="904.814" height="858.176" transform="matrix(1,0,0,1,0,0)" fill="rgb(244,244,244)"/><defs><filter id="twkLEIMHBcWydl4ula7Ga5Ps7YvORfHQ" x="-200%" y="-200%" width="400%" height="400%" filterUnits="objectBoundingBox" color-interpolation-filters="sRGB"><feGaussianBlur xmlns="http://www.w3.org/2000/svg" in="SourceGraphic" stdDeviation="2.146804531419514"/><feOffset xmlns="http://www.w3.org/2000/svg" dx="0" dy="0" result="pf_100_offsetBlur"/><feFlood xmlns="http://www.w3.org/2000/svg" flood-color="#000000" flood-opacity="0.65"/><feComposite xmlns="http://www.w3.org/2000/svg" in2="pf_100_offsetBlur" operator="in" result="pf_100_dropShadow"/><feBlend xmlns="http://www.w3.org/2000/svg" in="SourceGraphic" in2="pf_100_dropShadow" mode="normal"/></filter></defs><g filter="url(#twkLEIMHBcWydl4ula7Ga5Ps7YvORfHQ)"><path d="M 121.163 137.482 L 476.181 136.646 C 481.943 136.633 486.632 141.3 486.645 147.062 L 488.064 749.637 C 488.077 755.399 483.41 760.088 477.648 760.102 L 122.631 760.937 C 116.869 760.951 112.18 756.284 112.166 750.522 L 110.748 147.946 C 110.734 142.184 115.401 137.495 121.163 137.482 Z" style="stroke:none;fill:#858391;stroke-miterlimit:10;"/></g><rect x="141.137" y="229.595" width="317.537" height="105.068" transform="matrix(1,0,0,1,0,0)" fill="rgb(255,255,255)"/><path d=" M 272.278 312.787 L 267.485 312.787 L 265.964 307.793 L 258.315 307.793 L 256.794 312.787 L 252.001 312.787 L 259.406 291.72 L 264.844 291.72 L 272.278 312.787 L 272.278 312.787 Z  M 259.434 304.062 L 264.902 304.062 L 264.902 304.062 Q 262.792 297.274 262.527 296.384 L 262.527 296.384 L 262.527 296.384 Q 262.261 295.495 262.146 294.978 L 262.146 294.978 L 262.146 294.978 Q 261.673 296.815 259.434 304.062 L 259.434 304.062 L 259.434 304.062 Z  M 283.83 295.208 L 283.83 295.208 L 283.83 295.208 Q 281.319 295.208 279.941 297.095 L 279.941 297.095 L 279.941 297.095 Q 278.563 298.982 278.563 302.354 L 278.563 302.354 L 278.563 302.354 Q 278.563 309.371 283.83 309.371 L 283.83 309.371 L 283.83 309.371 Q 286.04 309.371 289.183 308.266 L 289.183 308.266 L 289.183 311.998 L 289.183 311.998 Q 286.6 313.074 283.414 313.074 L 283.414 313.074 L 283.414 313.074 Q 278.836 313.074 276.411 310.297 L 276.411 310.297 L 276.411 310.297 Q 273.986 307.52 273.986 302.325 L 273.986 302.325 L 273.986 302.325 Q 273.986 299.054 275.177 296.592 L 275.177 296.592 L 275.177 296.592 Q 276.368 294.131 278.599 292.818 L 278.599 292.818 L 278.599 292.818 Q 280.831 291.505 283.83 291.505 L 283.83 291.505 L 283.83 291.505 Q 286.887 291.505 289.972 292.983 L 289.972 292.983 L 288.537 296.6 L 288.537 296.6 Q 287.36 296.04 286.169 295.624 L 286.169 295.624 L 286.169 295.624 Q 284.978 295.208 283.83 295.208 Z  M 302.557 295.208 L 302.557 295.208 L 302.557 295.208 Q 300.046 295.208 298.668 297.095 L 298.668 297.095 L 298.668 297.095 Q 297.291 298.982 297.291 302.354 L 297.291 302.354 L 297.291 302.354 Q 297.291 309.371 302.557 309.371 L 302.557 309.371 L 302.557 309.371 Q 304.767 309.371 307.91 308.266 L 307.91 308.266 L 307.91 311.998 L 307.91 311.998 Q 305.327 313.074 302.141 313.074 L 302.141 313.074 L 302.141 313.074 Q 297.563 313.074 295.138 310.297 L 295.138 310.297 L 295.138 310.297 Q 292.713 307.52 292.713 302.325 L 292.713 302.325 L 292.713 302.325 Q 292.713 299.054 293.904 296.592 L 293.904 296.592 L 293.904 296.592 Q 295.095 294.131 297.326 292.818 L 297.326 292.818 L 297.326 292.818 Q 299.558 291.505 302.557 291.505 L 302.557 291.505 L 302.557 291.505 Q 305.614 291.505 308.699 292.983 L 308.699 292.983 L 307.264 296.6 L 307.264 296.6 Q 306.087 296.04 304.896 295.624 L 304.896 295.624 L 304.896 295.624 Q 303.705 295.208 302.557 295.208 Z  M 324.456 309.113 L 324.456 312.787 L 312.373 312.787 L 312.373 291.807 L 324.456 291.807 L 324.456 295.452 L 316.821 295.452 L 316.821 300.058 L 323.925 300.058 L 323.925 303.703 L 316.821 303.703 L 316.821 309.113 L 324.456 309.113 L 324.456 309.113 Z  M 341.217 306.961 L 341.217 306.961 L 341.217 306.961 Q 341.217 309.802 339.172 311.438 L 339.172 311.438 L 339.172 311.438 Q 337.127 313.074 333.482 313.074 L 333.482 313.074 L 333.482 313.074 Q 330.124 313.074 327.541 311.811 L 327.541 311.811 L 327.541 307.678 L 327.541 307.678 Q 329.665 308.625 331.136 309.013 L 331.136 309.013 L 331.136 309.013 Q 332.607 309.4 333.827 309.4 L 333.827 309.4 L 333.827 309.4 Q 335.29 309.4 336.073 308.84 L 336.073 308.84 L 336.073 308.84 Q 336.855 308.281 336.855 307.176 L 336.855 307.176 L 336.855 307.176 Q 336.855 306.559 336.51 306.078 L 336.51 306.078 L 336.51 306.078 Q 336.166 305.597 335.499 305.152 L 335.499 305.152 L 335.499 305.152 Q 334.831 304.708 332.779 303.732 L 332.779 303.732 L 332.779 303.732 Q 330.856 302.828 329.895 301.995 L 329.895 301.995 L 329.895 301.995 Q 328.933 301.163 328.359 300.058 L 328.359 300.058 L 328.359 300.058 Q 327.785 298.953 327.785 297.475 L 327.785 297.475 L 327.785 297.475 Q 327.785 294.691 329.672 293.098 L 329.672 293.098 L 329.672 293.098 Q 331.559 291.505 334.889 291.505 L 334.889 291.505 L 334.889 291.505 Q 336.525 291.505 338.01 291.893 L 338.01 291.893 L 338.01 291.893 Q 339.495 292.28 341.117 292.983 L 341.117 292.983 L 339.682 296.442 L 339.682 296.442 Q 338.003 295.753 336.905 295.48 L 336.905 295.48 L 336.905 295.48 Q 335.807 295.208 334.745 295.208 L 334.745 295.208 L 334.745 295.208 Q 333.482 295.208 332.808 295.796 L 332.808 295.796 L 332.808 295.796 Q 332.133 296.384 332.133 297.331 L 332.133 297.331 L 332.133 297.331 Q 332.133 297.92 332.406 298.358 L 332.406 298.358 L 332.406 298.358 Q 332.679 298.795 333.274 299.204 L 333.274 299.204 L 333.274 299.204 Q 333.87 299.613 336.094 300.675 L 336.094 300.675 L 336.094 300.675 Q 339.036 302.081 340.127 303.495 L 340.127 303.495 L 340.127 303.495 Q 341.217 304.908 341.217 306.961 Z  M 357.404 306.961 L 357.404 306.961 L 357.404 306.961 Q 357.404 309.802 355.359 311.438 L 355.359 311.438 L 355.359 311.438 Q 353.315 313.074 349.67 313.074 L 349.67 313.074 L 349.67 313.074 Q 346.312 313.074 343.728 311.811 L 343.728 311.811 L 343.728 307.678 L 343.728 307.678 Q 345.852 308.625 347.323 309.013 L 347.323 309.013 L 347.323 309.013 Q 348.794 309.4 350.014 309.4 L 350.014 309.4 L 350.014 309.4 Q 351.478 309.4 352.26 308.84 L 352.26 308.84 L 352.26 308.84 Q 353.042 308.281 353.042 307.176 L 353.042 307.176 L 353.042 307.176 Q 353.042 306.559 352.697 306.078 L 352.697 306.078 L 352.697 306.078 Q 352.353 305.597 351.686 305.152 L 351.686 305.152 L 351.686 305.152 Q 351.018 304.708 348.966 303.732 L 348.966 303.732 L 348.966 303.732 Q 347.043 302.828 346.082 301.995 L 346.082 301.995 L 346.082 301.995 Q 345.12 301.163 344.546 300.058 L 344.546 300.058 L 344.546 300.058 Q 343.972 298.953 343.972 297.475 L 343.972 297.475 L 343.972 297.475 Q 343.972 294.691 345.859 293.098 L 345.859 293.098 L 345.859 293.098 Q 347.747 291.505 351.076 291.505 L 351.076 291.505 L 351.076 291.505 Q 352.712 291.505 354.197 291.893 L 354.197 291.893 L 354.197 291.893 Q 355.682 292.28 357.304 292.983 L 357.304 292.983 L 355.869 296.442 L 355.869 296.442 Q 354.19 295.753 353.092 295.48 L 353.092 295.48 L 353.092 295.48 Q 351.994 295.208 350.932 295.208 L 350.932 295.208 L 350.932 295.208 Q 349.67 295.208 348.995 295.796 L 348.995 295.796 L 348.995 295.796 Q 348.321 296.384 348.321 297.331 L 348.321 297.331 L 348.321 297.331 Q 348.321 297.92 348.593 298.358 L 348.593 298.358 L 348.593 298.358 Q 348.866 298.795 349.461 299.204 L 349.461 299.204 L 349.461 299.204 Q 350.057 299.613 352.281 300.675 L 352.281 300.675 L 352.281 300.675 Q 355.223 302.081 356.314 303.495 L 356.314 303.495 L 356.314 303.495 Q 357.404 304.908 357.404 306.961 Z  M 226.292 255.428 L 226.292 261.097 L 227.727 261.097 L 227.727 261.097 Q 229.837 261.097 230.841 260.394 L 230.841 260.394 L 230.841 260.394 Q 231.846 259.69 231.846 258.184 L 231.846 258.184 L 231.846 258.184 Q 231.846 256.691 230.82 256.06 L 230.82 256.06 L 230.82 256.06 Q 229.794 255.428 227.641 255.428 L 227.641 255.428 L 226.292 255.428 L 226.292 255.428 Z  M 228.66 264.713 L 226.292 264.713 L 226.292 272.764 L 221.843 272.764 L 221.843 251.783 L 227.957 251.783 L 227.957 251.783 Q 232.233 251.783 234.285 253.34 L 234.285 253.34 L 234.285 253.34 Q 236.337 254.897 236.337 258.069 L 236.337 258.069 L 236.337 258.069 Q 236.337 259.92 235.318 261.362 L 235.318 261.362 L 235.318 261.362 Q 234.3 262.804 232.434 263.622 L 232.434 263.622 L 232.434 263.622 Q 237.17 270.697 238.605 272.764 L 238.605 272.764 L 233.668 272.764 L 228.66 264.713 L 228.66 264.713 Z  M 253.328 269.09 L 253.328 272.764 L 241.245 272.764 L 241.245 251.783 L 253.328 251.783 L 253.328 255.428 L 245.694 255.428 L 245.694 260.035 L 252.797 260.035 L 252.797 263.68 L 245.694 263.68 L 245.694 269.09 L 253.328 269.09 L 253.328 269.09 Z  M 270.089 266.937 L 270.089 266.937 L 270.089 266.937 Q 270.089 269.779 268.045 271.415 L 268.045 271.415 L 268.045 271.415 Q 266 273.051 262.355 273.051 L 262.355 273.051 L 262.355 273.051 Q 258.997 273.051 256.414 271.788 L 256.414 271.788 L 256.414 267.655 L 256.414 267.655 Q 258.537 268.602 260.008 268.989 L 260.008 268.989 L 260.008 268.989 Q 261.479 269.377 262.699 269.377 L 262.699 269.377 L 262.699 269.377 Q 264.163 269.377 264.945 268.817 L 264.945 268.817 L 264.945 268.817 Q 265.727 268.258 265.727 267.153 L 265.727 267.153 L 265.727 267.153 Q 265.727 266.536 265.383 266.055 L 265.383 266.055 L 265.383 266.055 Q 265.038 265.574 264.371 265.129 L 264.371 265.129 L 264.371 265.129 Q 263.704 264.684 261.651 263.709 L 261.651 263.709 L 261.651 263.709 Q 259.728 262.804 258.767 261.972 L 258.767 261.972 L 258.767 261.972 Q 257.805 261.14 257.231 260.035 L 257.231 260.035 L 257.231 260.035 Q 256.657 258.93 256.657 257.452 L 256.657 257.452 L 256.657 257.452 Q 256.657 254.668 258.545 253.075 L 258.545 253.075 L 258.545 253.075 Q 260.432 251.482 263.761 251.482 L 263.761 251.482 L 263.761 251.482 Q 265.397 251.482 266.882 251.869 L 266.882 251.869 L 266.882 251.869 Q 268.367 252.257 269.989 252.96 L 269.989 252.96 L 268.554 256.419 L 268.554 256.419 Q 266.875 255.73 265.777 255.457 L 265.777 255.457 L 265.777 255.457 Q 264.679 255.184 263.617 255.184 L 263.617 255.184 L 263.617 255.184 Q 262.355 255.184 261.68 255.773 L 261.68 255.773 L 261.68 255.773 Q 261.006 256.361 261.006 257.308 L 261.006 257.308 L 261.006 257.308 Q 261.006 257.897 261.278 258.334 L 261.278 258.334 L 261.278 258.334 Q 261.551 258.772 262.146 259.181 L 262.146 259.181 L 262.146 259.181 Q 262.742 259.59 264.966 260.652 L 264.966 260.652 L 264.966 260.652 Q 267.908 262.058 268.999 263.472 L 268.999 263.472 L 268.999 263.472 Q 270.089 264.885 270.089 266.937 Z  M 281.986 255.486 L 281.986 272.764 L 277.537 272.764 L 277.537 255.486 L 271.84 255.486 L 271.84 251.783 L 287.683 251.783 L 287.683 255.486 L 281.986 255.486 L 281.986 255.486 Z  M 295.36 255.428 L 295.36 261.097 L 296.796 261.097 L 296.796 261.097 Q 298.905 261.097 299.91 260.394 L 299.91 260.394 L 299.91 260.394 Q 300.914 259.69 300.914 258.184 L 300.914 258.184 L 300.914 258.184 Q 300.914 256.691 299.888 256.06 L 299.888 256.06 L 299.888 256.06 Q 298.862 255.428 296.709 255.428 L 296.709 255.428 L 295.36 255.428 L 295.36 255.428 Z  M 297.728 264.713 L 295.36 264.713 L 295.36 272.764 L 290.912 272.764 L 290.912 251.783 L 297.025 251.783 L 297.025 251.783 Q 301.302 251.783 303.354 253.34 L 303.354 253.34 L 303.354 253.34 Q 305.406 254.897 305.406 258.069 L 305.406 258.069 L 305.406 258.069 Q 305.406 259.92 304.387 261.362 L 304.387 261.362 L 304.387 261.362 Q 303.368 262.804 301.502 263.622 L 301.502 263.622 L 301.502 263.622 Q 306.238 270.697 307.673 272.764 L 307.673 272.764 L 302.737 272.764 L 297.728 264.713 L 297.728 264.713 Z  M 314.762 272.764 L 310.314 272.764 L 310.314 251.783 L 314.762 251.783 L 314.762 272.764 L 314.762 272.764 Z  M 328.955 255.184 L 328.955 255.184 L 328.955 255.184 Q 326.443 255.184 325.066 257.071 L 325.066 257.071 L 325.066 257.071 Q 323.688 258.959 323.688 262.331 L 323.688 262.331 L 323.688 262.331 Q 323.688 269.348 328.955 269.348 L 328.955 269.348 L 328.955 269.348 Q 331.165 269.348 334.307 268.243 L 334.307 268.243 L 334.307 271.974 L 334.307 271.974 Q 331.724 273.051 328.539 273.051 L 328.539 273.051 L 328.539 273.051 Q 323.961 273.051 321.536 270.274 L 321.536 270.274 L 321.536 270.274 Q 319.11 267.497 319.11 262.302 L 319.11 262.302 L 319.11 262.302 Q 319.11 259.03 320.301 256.569 L 320.301 256.569 L 320.301 256.569 Q 321.493 254.108 323.724 252.795 L 323.724 252.795 L 323.724 252.795 Q 325.955 251.482 328.955 251.482 L 328.955 251.482 L 328.955 251.482 Q 332.011 251.482 335.097 252.96 L 335.097 252.96 L 333.662 256.576 L 333.662 256.576 Q 332.485 256.017 331.294 255.601 L 331.294 255.601 L 331.294 255.601 Q 330.103 255.184 328.955 255.184 Z  M 346.864 255.486 L 346.864 272.764 L 342.415 272.764 L 342.415 255.486 L 336.718 255.486 L 336.718 251.783 L 352.561 251.783 L 352.561 255.486 L 346.864 255.486 L 346.864 255.486 Z  M 367.873 269.09 L 367.873 272.764 L 355.79 272.764 L 355.79 251.783 L 367.873 251.783 L 367.873 255.428 L 360.239 255.428 L 360.239 260.035 L 367.342 260.035 L 367.342 263.68 L 360.239 263.68 L 360.239 269.09 L 367.873 269.09 L 367.873 269.09 Z  M 389.657 262.073 L 389.657 262.073 L 389.657 262.073 Q 389.657 267.253 386.708 270.008 L 386.708 270.008 L 386.708 270.008 Q 383.759 272.764 378.191 272.764 L 378.191 272.764 L 372.25 272.764 L 372.25 251.783 L 378.837 251.783 L 378.837 251.783 Q 383.974 251.783 386.815 254.496 L 386.815 254.496 L 386.815 254.496 Q 389.657 257.208 389.657 262.073 Z  M 385.036 262.187 L 385.036 262.187 L 385.036 262.187 Q 385.036 255.428 379.066 255.428 L 379.066 255.428 L 376.698 255.428 L 376.698 269.09 L 378.607 269.09 L 378.607 269.09 Q 385.036 269.09 385.036 262.187 Z " fill-rule="evenodd" fill="rgb(255,0,0)"/><line x1="115.156" y1="229.595" x2="482.211" y2="229.595" vector-effect="non-scaling-stroke" stroke-width="5" stroke="rgb(240,12,12)" stroke-linejoin="miter" stroke-linecap="square" stroke-miterlimit="3"/><line x1="115.879" y1="214.165" x2="482.933" y2="214.165" vector-effect="non-scaling-stroke" stroke-width="5" stroke="rgb(240,12,12)" stroke-linejoin="miter" stroke-linecap="square" stroke-miterlimit="3"/><line x1="115.156" y1="334.663" x2="482.211" y2="334.663" vector-effect="non-scaling-stroke" stroke-width="5" stroke="rgb(240,12,12)" stroke-linejoin="miter" stroke-linecap="square" stroke-miterlimit="3"/><line x1="115.879" y1="349.116" x2="482.933" y2="349.116" vector-effect="non-scaling-stroke" stroke-width="5" stroke="rgb(240,12,12)" stroke-linejoin="miter" stroke-linecap="square" stroke-miterlimit="3"/><path d=" M -96.933 -6.991 L 708.149 -6.991 L 497.122 136.622 L 110.723 137.506 L -96.933 -6.991 Z " fill="rgb(183,183,183)"/><g><rect x="29.598" y="591.558" width="887.542" height="29.39" transform="matrix(0,1,-1,0,1079.622,132.884)" fill="rgb(255,221,0)"/><path d=" M 488.064 252.934 L 488.064 279.275 L 458.674 260.389 L 458.674 233.804 L 488.064 252.934 Z " fill="rgb(0,0,0)"/><path d=" M 488.064 304.124 L 488.064 330.465 L 458.674 311.579 L 458.674 284.994 L 488.064 304.124 Z " fill="rgb(0,0,0)"/><path d=" M 488.064 350.842 L 488.064 377.182 L 458.674 358.297 L 458.674 331.712 L 488.064 350.842 Z " fill="rgb(0,0,0)"/><path d=" M 488.064 402.597 L 488.064 428.937 L 458.674 410.051 L 458.674 383.466 L 488.064 402.597 Z " fill="rgb(0,0,0)"/><path d=" M 488.064 453.075 L 488.064 479.416 L 458.674 460.53 L 458.674 433.945 L 488.064 453.075 Z " fill="rgb(0,0,0)"/><path d=" M 488.064 502.025 L 488.064 528.365 L 458.674 509.479 L 458.674 482.894 L 488.064 502.025 Z " fill="rgb(0,0,0)"/><path d=" M 488.064 804.196 L 488.064 830.537 L 458.674 811.651 L 458.674 785.066 L 488.064 804.196 Z " fill="rgb(0,0,0)"/><path d=" M 488.064 554.837 L 488.064 581.177 L 458.674 562.292 L 458.674 535.707 L 488.064 554.837 Z " fill="rgb(0,0,0)"/><path d=" M 488.064 857.008 L 488.064 883.349 L 458.674 864.463 L 458.674 837.878 L 488.064 857.008 Z " fill="rgb(0,0,0)"/><path d=" M 488.064 602.648 L 488.064 628.988 L 458.674 610.102 L 458.674 583.517 L 488.064 602.648 Z " fill="rgb(0,0,0)"/><path d=" M 488.064 904.819 L 488.064 931.16 L 458.674 912.274 L 458.674 885.689 L 488.064 904.819 Z " fill="rgb(0,0,0)"/><path d=" M 488.064 652.844 L 488.064 679.184 L 458.674 660.299 L 458.674 633.714 L 488.064 652.844 Z " fill="rgb(0,0,0)"/><path d=" M 488.064 955.015 L 488.064 981.356 L 458.674 962.47 L 458.674 935.885 L 488.064 955.015 Z " fill="rgb(0,0,0)"/><path d=" M 488.064 704.017 L 488.064 730.358 L 458.674 711.472 L 458.674 684.887 L 488.064 704.017 Z " fill="rgb(0,0,0)"/><path d=" M 488.064 1006.189 L 488.064 1032.529 L 458.674 1013.644 L 458.674 987.059 L 488.064 1006.189 Z " fill="rgb(0,0,0)"/><path d=" M 488.064 749.488 L 488.064 775.829 L 458.674 756.943 L 458.674 730.358 L 488.064 749.488 Z " fill="rgb(0,0,0)"/><path d=" M 488.064 1051.659 L 488.064 1078 L 458.674 1059.114 L 458.674 1032.529 L 488.064 1051.659 Z " fill="rgb(0,0,0)"/><path d=" M 488.064 201.247 L 488.064 227.588 L 458.674 208.702 L 458.674 182.117 L 488.064 201.247 Z " fill="rgb(0,0,0)"/><path d=" M 488.064 155.776 L 488.064 182.117 L 458.674 163.231 L 458.674 136.646 L 488.064 155.776 Z " fill="rgb(0,0,0)"/></g><g><rect x="115.645" y="136.959" width="887.542" height="29.39" transform="matrix(1,0.001,-0.001,1,0.105,-0.388)" fill="rgb(255,221,0)"/><path d=" M 206.108 136.714 L 232.449 136.732 L 213.542 166.108 L 186.957 166.09 L 206.108 136.714 Z " fill="rgb(0,0,0)"/><path d=" M 257.298 136.749 L 283.639 136.767 L 264.733 166.144 L 238.148 166.125 L 257.298 136.749 Z " fill="rgb(0,0,0)"/><path d=" M 304.015 136.781 L 330.356 136.8 L 311.45 166.176 L 284.865 166.158 L 304.015 136.781 Z " fill="rgb(0,0,0)"/><path d=" M 355.77 136.817 L 382.111 136.836 L 363.205 166.212 L 336.62 166.194 L 355.77 136.817 Z " fill="rgb(0,0,0)"/><path d=" M 406.249 136.852 L 432.589 136.871 L 413.683 166.247 L 387.098 166.229 L 406.249 136.852 Z " fill="rgb(0,0,0)"/><path d=" M 455.198 136.886 L 481.539 136.905 L 462.633 166.281 L 436.048 166.263 L 455.198 136.886 Z " fill="rgb(0,0,0)"/><path d=" M 757.37 137.096 L 783.71 137.114 L 764.804 166.491 L 738.219 166.472 L 757.37 137.096 Z " fill="rgb(0,0,0)"/><path d=" M 508.01 136.923 L 534.351 136.941 L 515.445 166.318 L 488.86 166.299 L 508.01 136.923 Z " fill="rgb(0,0,0)"/><path d=" M 810.182 137.133 L 836.522 137.151 L 817.616 166.528 L 791.031 166.509 L 810.182 137.133 Z " fill="rgb(0,0,0)"/><path d=" M 555.821 136.956 L 582.162 136.975 L 563.256 166.351 L 536.671 166.333 L 555.821 136.956 Z " fill="rgb(0,0,0)"/><path d=" M 857.993 137.166 L 884.333 137.184 L 865.427 166.561 L 838.842 166.542 L 857.993 137.166 Z " fill="rgb(0,0,0)"/><path d=" M 606.017 136.991 L 632.358 137.009 L 613.452 166.386 L 586.867 166.367 L 606.017 136.991 Z " fill="rgb(0,0,0)"/><path d=" M 908.189 137.201 L 934.529 137.219 L 915.623 166.596 L 889.038 166.577 L 908.189 137.201 Z " fill="rgb(0,0,0)"/><path d=" M 657.191 137.027 L 683.532 137.045 L 664.625 166.421 L 638.04 166.403 L 657.191 137.027 Z " fill="rgb(0,0,0)"/><path d=" M 959.362 137.236 L 985.703 137.255 L 966.797 166.631 L 940.212 166.613 L 959.362 137.236 Z " fill="rgb(0,0,0)"/><path d=" M 702.662 137.058 L 729.002 137.076 L 710.096 166.453 L 683.511 166.434 L 702.662 137.058 Z " fill="rgb(0,0,0)"/><path d=" M 1004.833 137.268 L 1031.174 137.286 L 1012.267 166.663 L 985.682 166.644 L 1004.833 137.268 Z " fill="rgb(0,0,0)"/><path d=" M 154.421 136.678 L 180.761 136.696 L 161.855 166.072 L 135.27 166.054 L 154.421 136.678 Z " fill="rgb(0,0,0)"/><path d=" M 108.95 136.646 L 135.291 136.664 L 116.385 166.041 L 89.8 166.022 L 108.95 136.646 Z " fill="rgb(0,0,0)"/></g><path d=" M -114.278 -18.555 L 112.191 136.622 L 112.191 760.962 L -121.505 945.521 L -114.278 -18.555 Z " fill="rgb(206,206,206)"/><rect x="106.554" y="624.408" width="6.193" height="64.657" transform="matrix(1,0,0,1,0,0)" fill="rgb(38,38,38)"/><rect x="104.554" y="619.742" width="6.193" height="64.657" transform="matrix(1,0,0,1,0,0)" fill="rgb(79,79,79)"/><rect x="106.554" y="219.499" width="6.193" height="64.657" transform="matrix(1,0,0,1,0,0)" fill="rgb(28,27,27)"/><rect x="104.554" y="216.499" width="6.193" height="64.657" transform="matrix(1,0,0,1,0,0)" fill="rgb(94,93,93)"/><g><rect x="136.593" y="731.258" width="887.542" height="29.39" transform="matrix(1,0.001,-0.001,1,0.518,-0.403)" fill="rgb(255,221,0)"/><path d=" M 227.056 731.013 L 253.397 731.031 L 234.491 760.408 L 207.906 760.389 L 227.056 731.013 Z " fill="rgb(0,0,0)"/><path d=" M 278.246 731.048 L 304.587 731.067 L 285.681 760.443 L 259.096 760.425 L 278.246 731.048 Z " fill="rgb(0,0,0)"/><path d=" M 324.964 731.081 L 351.304 731.099 L 332.398 760.476 L 305.813 760.457 L 324.964 731.081 Z " fill="rgb(0,0,0)"/><path d=" M 376.718 731.117 L 403.059 731.135 L 384.153 760.511 L 357.568 760.493 L 376.718 731.117 Z " fill="rgb(0,0,0)"/><path d=" M 427.197 731.152 L 453.537 731.17 L 434.631 760.547 L 408.046 760.528 L 427.197 731.152 Z " fill="rgb(0,0,0)"/><path d=" M 476.147 731.186 L 502.487 731.204 L 483.581 760.58 L 456.996 760.562 L 476.147 731.186 Z " fill="rgb(0,0,0)"/><path d=" M 778.318 731.395 L 804.658 731.414 L 785.752 760.79 L 759.167 760.772 L 778.318 731.395 Z " fill="rgb(0,0,0)"/><path d=" M 528.959 731.222 L 555.299 731.241 L 536.393 760.617 L 509.808 760.599 L 528.959 731.222 Z " fill="rgb(0,0,0)"/><path d=" M 831.13 731.432 L 857.471 731.45 L 838.564 760.827 L 811.979 760.808 L 831.13 731.432 Z " fill="rgb(0,0,0)"/><path d=" M 576.769 731.256 L 603.11 731.274 L 584.204 760.65 L 557.619 760.632 L 576.769 731.256 Z " fill="rgb(0,0,0)"/><path d=" M 878.941 731.465 L 905.281 731.484 L 886.375 760.86 L 859.79 760.842 L 878.941 731.465 Z " fill="rgb(0,0,0)"/><path d=" M 626.966 731.29 L 653.306 731.309 L 634.4 760.685 L 607.815 760.667 L 626.966 731.29 Z " fill="rgb(0,0,0)"/><path d=" M 929.137 731.5 L 955.478 731.518 L 936.571 760.895 L 909.986 760.876 L 929.137 731.5 Z " fill="rgb(0,0,0)"/><path d=" M 678.139 731.326 L 704.48 731.344 L 685.574 760.721 L 658.989 760.702 L 678.139 731.326 Z " fill="rgb(0,0,0)"/><path d=" M 980.31 731.536 L 1006.651 731.554 L 987.745 760.93 L 961.16 760.912 L 980.31 731.536 Z " fill="rgb(0,0,0)"/><path d=" M 723.61 731.357 L 749.95 731.376 L 731.044 760.752 L 704.459 760.734 L 723.61 731.357 Z " fill="rgb(0,0,0)"/><path d=" M 1025.781 731.567 L 1052.122 731.585 L 1033.216 760.962 L 1006.631 760.943 L 1025.781 731.567 Z " fill="rgb(0,0,0)"/><path d=" M 175.369 730.977 L 201.71 730.995 L 182.803 760.372 L 156.218 760.353 L 175.369 730.977 Z " fill="rgb(0,0,0)"/><path d=" M 129.898 730.945 L 156.239 730.964 L 137.333 760.34 L 110.748 760.322 L 129.898 730.945 Z " fill="rgb(0,0,0)"/></g><g><rect x="-317.329" y="592.229" width="887.542" height="29.39" transform="matrix(0,-1,1,0,-480.481,733.366)" fill="rgb(255,221,0)"/><path d=" M 111.748 960.242 L 111.748 933.902 L 141.137 952.788 L 141.137 979.373 L 111.748 960.242 Z " fill="rgb(0,0,0)"/><path d=" M 111.748 909.052 L 111.748 882.712 L 141.137 901.597 L 141.137 928.182 L 111.748 909.052 Z " fill="rgb(0,0,0)"/><path d=" M 111.748 862.335 L 111.748 835.994 L 141.137 854.88 L 141.137 881.465 L 111.748 862.335 Z " fill="rgb(0,0,0)"/><path d=" M 111.748 810.58 L 111.748 784.24 L 141.137 803.125 L 141.137 829.71 L 111.748 810.58 Z " fill="rgb(0,0,0)"/><path d=" M 111.748 760.102 L 111.748 733.761 L 141.137 752.647 L 141.137 779.232 L 111.748 760.102 Z " fill="rgb(0,0,0)"/><path d=" M 111.748 711.152 L 111.748 684.811 L 141.137 703.697 L 141.137 730.282 L 111.748 711.152 Z " fill="rgb(0,0,0)"/><path d=" M 111.748 408.981 L 111.748 382.64 L 141.137 401.526 L 141.137 428.111 L 111.748 408.981 Z " fill="rgb(0,0,0)"/><path d=" M 111.748 658.34 L 111.748 631.999 L 141.137 650.885 L 141.137 677.47 L 111.748 658.34 Z " fill="rgb(0,0,0)"/><path d=" M 111.748 356.169 L 111.748 329.828 L 141.137 348.714 L 141.137 375.299 L 111.748 356.169 Z " fill="rgb(0,0,0)"/><path d=" M 111.748 610.529 L 111.748 584.189 L 141.137 603.074 L 141.137 629.659 L 111.748 610.529 Z " fill="rgb(0,0,0)"/><path d=" M 111.748 308.358 L 111.748 282.017 L 141.137 300.903 L 141.137 327.488 L 111.748 308.358 Z " fill="rgb(0,0,0)"/><path d=" M 111.748 560.333 L 111.748 533.992 L 141.137 552.878 L 141.137 579.463 L 111.748 560.333 Z " fill="rgb(0,0,0)"/><path d=" M 111.748 258.161 L 111.748 231.821 L 141.137 250.707 L 141.137 277.292 L 111.748 258.161 Z " fill="rgb(0,0,0)"/><path d=" M 111.748 509.159 L 111.748 482.819 L 141.137 501.704 L 141.137 528.289 L 111.748 509.159 Z " fill="rgb(0,0,0)"/><path d=" M 111.748 206.988 L 111.748 180.647 L 141.137 199.533 L 141.137 226.118 L 111.748 206.988 Z " fill="rgb(0,0,0)"/><path d=" M 111.748 463.689 L 111.748 437.348 L 141.137 456.234 L 141.137 482.819 L 111.748 463.689 Z " fill="rgb(0,0,0)"/><path d=" M 111.748 161.517 L 111.748 135.177 L 141.137 154.062 L 141.137 180.647 L 111.748 161.517 Z " fill="rgb(0,0,0)"/><path d=" M 111.748 1011.93 L 111.748 985.589 L 141.137 1004.475 L 141.137 1031.06 L 111.748 1011.93 Z " fill="rgb(0,0,0)"/><path d=" M 111.748 1057.4 L 111.748 1031.06 L 141.137 1049.945 L 141.137 1076.531 L 111.748 1057.4 Z " fill="rgb(0,0,0)"/></g><rect x="-4.428" y="851.185" width="590.249" height="163.329" transform="matrix(1,0,0,1,0,0)" fill="rgb(235,235,235)"/><circle vector-effect="non-scaling-stroke" cx="437.47335480599367" cy="451.976573519742" r="15.246186053265376" fill="rgb(72,72,72)"/><circle vector-effect="non-scaling-stroke" cx="436.4733548059934" cy="448.7917365820577" r="15.246186053265376" fill="rgb(111,111,111)"/><path d=" M 112.191 760.937 L 490.679 760.937 L 615.344 851.16 L -1.838 851.16 L 112.191 760.937 Z " fill="rgb(179,179,179)"/><path d=" M 488.089 137.506 L 724.048 -20 L 647.443 877.587 L 488.064 760.937 L 488.089 137.506 Z " fill="rgb(206,206,206)"/></g></svg>