<?xml version="1.0" standalone="no"?><!-- Generator: Gravit.io --><svg xmlns="http://www.w3.org/2000/svg" xmlns:xlink="http://www.w3.org/1999/xlink" style="isolation:isolate" viewBox="50.351 185.508 538.425 441.111" width="538.425" height="441.111"><g><g><g><path d=" M 146.085 419.976 C 64.096 422.491 48.22 460.478 57.702 520.226 C 62.636 540.567 87.217 535.323 88.152 520.226 C 85.443 477.202 92.543 466.022 116.591 459.599 C 124.868 457.69 134.699 457.364 146.085 458.39 L 146.085 419.976 Z " fill="rgb(128,128,128)"/><path d=" M 147.25 413.736 C 63.208 416.252 44.464 454.238 54.183 513.986 C 56.763 535.44 80.704 540.222 84.164 524.037 C 79.67 480.539 90.637 459.296 117.018 453.36 C 125.502 451.45 135.58 451.124 147.25 452.15 L 147.25 413.736 Z " fill="rgb(219,217,217)"/></g><g><rect x="143.25" y="418.078" width="179.573" height="144.909" transform="matrix(1,0,0,1,0,0)" fill="rgb(187,187,187)"/><path d=" M 321.08 418.078 L 361.5 385.598 L 361.5 535.504 L 321.08 562.987 L 321.08 418.078 Z " fill="rgb(166,163,163)"/><path d=" M 177.323 385.598 L 361.5 385.598 L 322.823 418.078 L 143.25 418.078 L 177.323 385.598 Z " fill="rgb(219,217,217)"/><rect x="199.672" y="324.386" width="94.941" height="77.452" transform="matrix(1,0,0,1,0,0)" fill="rgb(187,187,187)"/><path d=" M 294.613 324.386 L 310.833 307.502 L 311.477 389.033 L 294.613 401.838 L 294.613 324.386 Z " fill="rgb(182,179,179)"/><path d=" M 228.716 308.146 L 310.833 307.502 L 294.613 324.386 L 202.483 324.386 L 228.716 308.146 Z " fill="rgb(219,217,217)"/></g><g><path d=" M 84.257 572.5 L 78.555 553.408 L 67.557 553.408 L 62.698 572.5 L 54.116 572.5 L 51.852 558.397 L 54.116 542.064 L 63.229 533.704 L 72.852 533.143 L 81.813 533.143 L 90.748 542.064 L 94.033 558.397 L 91.97 572.5 L 84.257 572.5 Z " fill="rgb(234,234,234)"/><path d=" M 82.756 572.5 L 77.053 553.408 L 66.056 553.408 L 61.196 572.5 L 52.614 572.5 L 50.351 558.397 L 52.614 542.064 L 61.727 533.704 L 71.351 533.143 L 80.312 533.143 L 89.246 542.064 L 92.531 558.397 L 90.468 572.5 L 82.756 572.5 Z " fill="rgb(183,183,183)"/></g><g><g><path d=" M 368.817 588.682 C 363.632 585.017 344.665 568.582 359.24 550.734 C 351.292 538.932 386.502 538.175 387.343 508.756 C 387.399 506.768 387.19 504.962 387.343 503.091 C 388.706 486.331 351.516 472.892 346.747 473.885 C 322.34 478.966 328.153 419.517 346.747 414.72 C 357.147 412.038 421.122 442.695 439.402 486.865 C 447.57 506.602 419.368 561.897 410.826 578.541 C 409.162 581.782 395.467 595.983 368.817 588.682 Z " fill="rgb(191,189,189)"/><path d=" M 361.322 588.627 C 356.136 584.865 337.17 569.056 351.744 550.734 C 351.744 536.284 399.215 515.339 392.969 500.765 C 378.564 467.154 346.414 476.774 339.252 470.784 C 316.35 451.629 327.601 413.736 346.331 413.736 C 365.061 413.736 435.026 443.201 435.026 484.109 C 435.026 525.017 421.284 548.236 406.294 578.217 C 404.63 581.544 387.972 596.122 361.322 588.627 Z " fill="rgb(219,217,217)"/><ellipse vector-effect="non-scaling-stroke" cx="379.9576724682751" cy="567.6135900449035" rx="33.67870338348399" ry="23.12836286064953" fill="rgb(128,128,128)"/></g><g><g><path d=" M 382.266 621.072 L 382.266 602.259 L 365.791 602.259 L 356.797 623.808 L 338.527 626.619 L 341.338 607.412 L 351.868 588.206 L 365.791 576.026 L 378.212 576.026 L 391.517 576.026 L 400.769 588.206 L 400.769 602.259 L 396.804 623.808 L 382.266 621.072 Z " fill="rgb(128,128,128)"/><path d=" M 333.53 620.373 L 338.527 626.619 L 356.797 623.808 L 351.8 617.562" fill="rgb(162,161,161)"/><path d=" M 377.269 614.826 L 378.212 621.072 L 396.804 623.808 L 391.807 617.562" fill="rgb(162,161,161)"/><path d=" M 377.269 614.826 L 377.269 596.013 L 360.794 596.013 L 351.8 617.562 L 333.53 620.373 L 336.341 601.166 L 346.871 581.96 L 360.794 569.78 L 373.215 569.78 L 386.52 569.78 L 395.772 581.96 L 395.772 596.013 L 393.242 609.762 L 391.807 617.562 L 377.269 614.826 Z " fill="rgb(234,234,234)"/></g><path d=" M 360.701 596.169 L 377.565 596.169 L 377.565 603.04 L 365.698 602.103 L 360.701 596.169 Z " fill="rgb(162,161,161)"/></g></g><path d=" M 345.656 346.117 L 364.811 305.31 C 294.287 266.085 302.098 231.145 364.811 200.375 C 414.167 186.9 456.943 181.252 523.046 194.702 C 609.333 221.157 595.628 271.122 557.607 299.428 C 522.863 325.294 470.422 331.467 402.288 317.802 L 345.656 346.117 Z " fill="rgb(255,255,255)" vector-effect="non-scaling-stroke" stroke-width="1" stroke="rgb(0,0,0)" stroke-linejoin="miter" stroke-linecap="square" stroke-miterlimit="3"/><g><rect x="178.326" y="448.02" width="108.266" height="78.284" transform="matrix(1,0,0,1,0,0)" fill="rgb(149,149,149)"/><path d=" M 283.56 528.686 L 286.592 526.304 L 283.56 526.304 L 283.56 528.686 Z " fill="rgb(149,149,149)"/><path d=" M 175.294 450.401 L 178.326 448.02 L 178.326 450.401" fill="rgb(149,149,149)"/></g><rect x="175.294" y="450.401" width="108.266" height="78.284" transform="matrix(1,0,0,1,0,0)" fill="rgb(168,167,167)"/><rect x="202.1" y="462.893" width="12.492" height="26.65" transform="matrix(1,0,0,1,0,0)" fill="rgb(33,195,71)"/><rect x="182.894" y="462.893" width="12.492" height="26.65" transform="matrix(1,0,0,1,0,0)" fill="rgb(33,195,71)"/><rect x="236.524" y="462.893" width="14.991" height="6.663" transform="matrix(1,0,0,1,0,0)" fill="rgb(33,195,71)"/><rect x="255.921" y="462.893" width="14.991" height="6.663" transform="matrix(1,0,0,1,0,0)" fill="rgb(33,195,71)"/><rect x="236.524" y="477.572" width="14.991" height="6.663" transform="matrix(1,0,0,1,0,0)" fill="rgb(33,195,71)"/><rect x="255.609" y="477.572" width="14.991" height="6.663" transform="matrix(1,0,0,1,0,0)" fill="rgb(33,195,71)"/><rect x="210.168" y="374.303" width="70.503" height="17.333" transform="matrix(1,0,0,1,0,0)" fill="rgb(235,235,235)" vector-effect="non-scaling-stroke" stroke-width="1" stroke="rgb(0,0,0)" stroke-linejoin="miter" stroke-linecap="square" stroke-miterlimit="2"/><line x1="210.168" y1="382.735" x2="280.671" y2="382.735" vector-effect="non-scaling-stroke" stroke-width="1" stroke="rgb(0,0,0)" stroke-linejoin="miter" stroke-linecap="square" stroke-miterlimit="3"/><line x1="254.281" y1="374.303" x2="254.281" y2="391.636" vector-effect="non-scaling-stroke" stroke-width="1" stroke="rgb(0,0,0)" stroke-linejoin="miter" stroke-linecap="square" stroke-miterlimit="3"/><line x1="263.104" y1="374.303" x2="263.104" y2="391.636" vector-effect="non-scaling-stroke" stroke-width="1" stroke="rgb(0,0,0)" stroke-linejoin="miter" stroke-linecap="square" stroke-miterlimit="3"/><line x1="272.317" y1="374.303" x2="272.317" y2="391.636" vector-effect="non-scaling-stroke" stroke-width="1" stroke="rgb(0,0,0)" stroke-linejoin="miter" stroke-linecap="square" stroke-miterlimit="3"/><line x1="227.553" y1="374.303" x2="227.553" y2="391.636" vector-effect="non-scaling-stroke" stroke-width="1" stroke="rgb(0,0,0)" stroke-linejoin="miter" stroke-linecap="square" stroke-miterlimit="3"/><line x1="246.099" y1="374.303" x2="246.099" y2="391.636" vector-effect="non-scaling-stroke" stroke-width="1" stroke="rgb(0,0,0)" stroke-linejoin="miter" stroke-linecap="square" stroke-miterlimit="3"/><line x1="218.6" y1="374.303" x2="218.6" y2="391.636" vector-effect="non-scaling-stroke" stroke-width="1" stroke="rgb(0,0,0)" stroke-linejoin="miter" stroke-linecap="square" stroke-miterlimit="3"/><line x1="236.524" y1="374.303" x2="236.524" y2="391.636" vector-effect="non-scaling-stroke" stroke-width="1" stroke="rgb(0,0,0)" stroke-linejoin="miter" stroke-linecap="square" stroke-miterlimit="3"/><line x1="254.281" y1="317.802" x2="254.281" y2="284.437" vector-effect="non-scaling-stroke" stroke-width="1" stroke="rgb(0,0,0)" stroke-linejoin="miter" stroke-linecap="square" stroke-miterlimit="3"/><circle vector-effect="non-scaling-stroke" cx="254.65209362569965" cy="275.4046361350307" r="8.84212867662454" fill="rgb(242,0,0)" stroke-width="1" stroke="rgb(0,0,0)" stroke-linejoin="miter" stroke-linecap="butt" stroke-miterlimit="3"/><path d=" M 567.515 258.582 L 565.627 258.589 L 565.624 257.798 L 565.624 257.798 Q 565.618 256.085 566.142 254.978 L 566.142 254.978 L 566.142 254.978 Q 566.665 253.871 568.095 252.637 L 568.095 252.637 L 568.095 252.637 Q 570.08 250.946 570.597 250.096 L 570.597 250.096 L 570.597 250.096 Q 571.114 249.245 571.11 248.044 L 571.11 248.044 L 571.11 248.044 Q 571.105 246.551 570.143 245.742 L 570.143 245.742 L 570.143 245.742 Q 569.181 244.933 567.381 244.939 L 567.381 244.939 L 567.381 244.939 Q 566.224 244.943 565.127 245.217 L 565.127 245.217 L 565.127 245.217 Q 564.03 245.492 562.613 246.214 L 562.613 246.214 L 561.742 244.241 L 561.742 244.241 Q 564.504 242.782 567.52 242.772 L 567.52 242.772 L 567.52 242.772 Q 570.316 242.762 571.872 244.133 L 571.872 244.133 L 571.872 244.133 Q 573.429 245.504 573.437 248.007 L 573.437 248.007 L 573.437 248.007 Q 573.441 249.076 573.158 249.889 L 573.158 249.889 L 573.158 249.889 Q 572.876 250.703 572.322 251.429 L 572.322 251.429 L 572.322 251.429 Q 571.768 252.156 569.929 253.772 L 569.929 253.772 L 569.929 253.772 Q 568.455 255.036 567.982 255.872 L 567.982 255.872 L 567.982 255.872 Q 567.509 256.708 567.514 258.099 L 567.514 258.099 L 567.515 258.582 L 567.515 258.582 Z  M 564.924 262.939 L 564.924 262.939 L 564.924 262.939 Q 564.918 260.948 566.674 260.942 L 566.674 260.942 L 566.674 260.942 Q 567.523 260.939 567.986 261.45 L 567.986 261.45 L 567.986 261.45 Q 568.449 261.961 568.453 262.927 L 568.453 262.927 L 568.453 262.927 Q 568.456 263.864 567.989 264.385 L 567.989 264.385 L 567.989 264.385 Q 567.522 264.906 566.688 264.909 L 566.688 264.909 L 566.688 264.909 Q 565.927 264.912 565.427 264.453 L 565.427 264.453 L 565.427 264.453 Q 564.928 263.993 564.924 262.939 Z  M 346.388 254.508 L 346.388 254.508 L 346.388 254.508 Q 346.407 260.056 344.667 262.8 L 344.667 262.8 L 344.667 262.8 Q 342.927 265.543 339.326 265.556 L 339.326 265.556 L 339.326 265.556 Q 335.871 265.568 334.061 262.77 L 334.061 262.77 L 334.061 262.77 Q 332.251 259.973 332.232 254.557 L 332.232 254.557 L 332.232 254.557 Q 332.213 248.964 333.946 246.25 L 333.946 246.25 L 333.946 246.25 Q 335.679 243.536 339.251 243.524 L 339.251 243.524 L 339.251 243.524 Q 342.735 243.512 344.552 246.331 L 344.552 246.331 L 344.552 246.331 Q 346.37 249.15 346.388 254.508 Z  M 334.692 254.548 L 334.692 254.548 L 334.692 254.548 Q 334.708 259.218 335.813 261.344 L 335.813 261.344 L 335.813 261.344 Q 336.918 263.471 339.319 263.462 L 339.319 263.462 L 339.319 263.462 Q 341.749 263.454 342.832 261.291 L 342.832 261.291 L 342.832 261.291 Q 343.915 259.128 343.9 254.517 L 343.9 254.517 L 343.9 254.517 Q 343.884 249.905 342.786 247.764 L 342.786 247.764 L 342.786 247.764 Q 341.688 245.623 339.258 245.632 L 339.258 245.632 L 339.258 245.632 Q 336.857 245.64 335.766 247.759 L 335.766 247.759 L 335.766 247.759 Q 334.676 249.878 334.692 254.548 Z  M 358.312 243.795 L 358.385 265.198 L 356.014 265.206 L 355.962 249.952 L 355.962 249.952 Q 355.955 248.049 356.066 246.35 L 356.066 246.35 L 356.066 246.35 Q 355.76 246.659 355.381 246.997 L 355.381 246.997 L 355.381 246.997 Q 355.001 247.335 351.906 249.863 L 351.906 249.863 L 350.612 248.199 L 356.263 243.802 L 358.312 243.795 L 358.312 243.795 Z  M 375.455 243.737 L 375.528 265.139 L 373.156 265.147 L 373.104 249.893 L 373.104 249.893 Q 373.098 247.99 373.209 246.291 L 373.209 246.291 L 373.209 246.291 Q 372.902 246.6 372.523 246.938 L 372.523 246.938 L 372.523 246.938 Q 372.144 247.276 369.049 249.805 L 369.049 249.805 L 367.755 248.14 L 373.405 243.744 L 375.455 243.737 L 375.455 243.737 Z  M 397.816 254.332 L 397.816 254.332 L 397.816 254.332 Q 397.835 259.88 396.095 262.624 L 396.095 262.624 L 396.095 262.624 Q 394.355 265.367 390.754 265.38 L 390.754 265.38 L 390.754 265.38 Q 387.299 265.392 385.489 262.594 L 385.489 262.594 L 385.489 262.594 Q 383.678 259.797 383.66 254.381 L 383.66 254.381 L 383.66 254.381 Q 383.641 248.788 385.373 246.074 L 385.373 246.074 L 385.373 246.074 Q 387.106 243.36 390.678 243.348 L 390.678 243.348 L 390.678 243.348 Q 394.162 243.336 395.98 246.155 L 395.98 246.155 L 395.98 246.155 Q 397.798 248.974 397.816 254.332 Z  M 386.119 254.372 L 386.119 254.372 L 386.119 254.372 Q 386.135 259.042 387.24 261.168 L 387.24 261.168 L 387.24 261.168 Q 388.346 263.295 390.746 263.286 L 390.746 263.286 L 390.746 263.286 Q 393.177 263.278 394.26 261.115 L 394.26 261.115 L 394.26 261.115 Q 395.343 258.952 395.327 254.341 L 395.327 254.341 L 395.327 254.341 Q 395.311 249.729 394.213 247.588 L 394.213 247.588 L 394.213 247.588 Q 393.115 245.447 390.685 245.456 L 390.685 245.456 L 390.685 245.456 Q 388.285 245.464 387.194 247.583 L 387.194 247.583 L 387.194 247.583 Q 386.103 249.702 386.119 254.372 Z  M 409.74 243.619 L 409.813 265.022 L 407.441 265.03 L 407.389 249.776 L 407.389 249.776 Q 407.383 247.873 407.494 246.174 L 407.494 246.174 L 407.494 246.174 Q 407.187 246.483 406.808 246.821 L 406.808 246.821 L 406.808 246.821 Q 406.429 247.159 403.334 249.687 L 403.334 249.687 L 402.04 248.023 L 407.69 243.626 L 409.74 243.619 L 409.74 243.619 Z  M 432.101 254.215 L 432.101 254.215 L 432.101 254.215 Q 432.12 259.763 430.38 262.507 L 430.38 262.507 L 430.38 262.507 Q 428.64 265.25 425.039 265.262 L 425.039 265.262 L 425.039 265.262 Q 421.584 265.274 419.774 262.477 L 419.774 262.477 L 419.774 262.477 Q 417.963 259.68 417.945 254.263 L 417.945 254.263 L 417.945 254.263 Q 417.926 248.671 419.658 245.957 L 419.658 245.957 L 419.658 245.957 Q 421.391 243.243 424.963 243.23 L 424.963 243.23 L 424.963 243.23 Q 428.447 243.218 430.265 246.038 L 430.265 246.038 L 430.265 246.038 Q 432.083 248.857 432.101 254.215 Z  M 420.404 254.255 L 420.404 254.255 L 420.404 254.255 Q 420.42 258.925 421.525 261.051 L 421.525 261.051 L 421.525 261.051 Q 422.631 263.177 425.031 263.169 L 425.031 263.169 L 425.031 263.169 Q 427.462 263.161 428.545 260.998 L 428.545 260.998 L 428.545 260.998 Q 429.628 258.835 429.612 254.223 L 429.612 254.223 L 429.612 254.223 Q 429.596 249.612 428.498 247.471 L 428.498 247.471 L 428.498 247.471 Q 427.401 245.33 424.97 245.338 L 424.97 245.338 L 424.97 245.338 Q 422.57 245.347 421.479 247.466 L 421.479 247.466 L 421.479 247.466 Q 420.388 249.585 420.404 254.255 Z  M 444.025 243.502 L 444.098 264.904 L 441.726 264.912 L 441.674 249.658 L 441.674 249.658 Q 441.668 247.755 441.779 246.057 L 441.779 246.057 L 441.779 246.057 Q 441.472 246.365 441.093 246.703 L 441.093 246.703 L 441.093 246.703 Q 440.714 247.041 437.619 249.57 L 437.619 249.57 L 436.325 247.905 L 441.975 243.509 L 444.025 243.502 L 444.025 243.502 Z  M 461.167 243.443 L 461.24 264.846 L 458.869 264.854 L 458.817 249.6 L 458.817 249.6 Q 458.81 247.697 458.921 245.998 L 458.921 245.998 L 458.921 245.998 Q 458.615 246.307 458.236 246.645 L 458.236 246.645 L 458.236 246.645 Q 457.856 246.983 454.761 249.511 L 454.761 249.511 L 453.467 247.847 L 459.118 243.45 L 461.167 243.443 L 461.167 243.443 Z  M 483.528 254.039 L 483.528 254.039 L 483.528 254.039 Q 483.547 259.587 481.807 262.331 L 481.807 262.331 L 481.807 262.331 Q 480.067 265.074 476.466 265.086 L 476.466 265.086 L 476.466 265.086 Q 473.011 265.098 471.201 262.301 L 471.201 262.301 L 471.201 262.301 Q 469.391 259.504 469.372 254.087 L 469.372 254.087 L 469.372 254.087 Q 469.353 248.495 471.086 245.781 L 471.086 245.781 L 471.086 245.781 Q 472.819 243.067 476.391 243.054 L 476.391 243.054 L 476.391 243.054 Q 479.875 243.042 481.692 245.862 L 481.692 245.862 L 481.692 245.862 Q 483.51 248.681 483.528 254.039 Z  M 471.832 254.079 L 471.832 254.079 L 471.832 254.079 Q 471.848 258.749 472.953 260.875 L 472.953 260.875 L 472.953 260.875 Q 474.058 263.001 476.459 262.993 L 476.459 262.993 L 476.459 262.993 Q 478.889 262.985 479.972 260.822 L 479.972 260.822 L 479.972 260.822 Q 481.056 258.659 481.04 254.047 L 481.04 254.047 L 481.04 254.047 Q 481.024 249.436 479.926 247.295 L 479.926 247.295 L 479.926 247.295 Q 478.828 245.154 476.398 245.162 L 476.398 245.162 L 476.398 245.162 Q 473.997 245.171 472.906 247.29 L 472.906 247.29 L 472.906 247.29 Q 471.816 249.409 471.832 254.079 Z  M 495.452 243.326 L 495.525 264.728 L 493.154 264.736 L 493.102 249.482 L 493.102 249.482 Q 493.095 247.579 493.206 245.881 L 493.206 245.881 L 493.206 245.881 Q 492.9 246.189 492.521 246.527 L 492.521 246.527 L 492.521 246.527 Q 492.141 246.865 489.046 249.394 L 489.046 249.394 L 487.752 247.729 L 493.403 243.333 L 495.452 243.326 L 495.452 243.326 Z  M 512.595 243.267 L 512.668 264.67 L 510.296 264.678 L 510.244 249.424 L 510.244 249.424 Q 510.238 247.521 510.349 245.822 L 510.349 245.822 L 510.349 245.822 Q 510.042 246.131 509.663 246.469 L 509.663 246.469 L 509.663 246.469 Q 509.284 246.807 506.189 249.335 L 506.189 249.335 L 504.895 247.671 L 510.545 243.274 L 512.595 243.267 L 512.595 243.267 Z  M 529.737 243.209 L 529.81 264.611 L 527.439 264.619 L 527.387 249.365 L 527.387 249.365 Q 527.38 247.462 527.491 245.763 L 527.491 245.763 L 527.491 245.763 Q 527.185 246.072 526.806 246.41 L 526.806 246.41 L 526.806 246.41 Q 526.426 246.748 523.331 249.276 L 523.331 249.276 L 522.037 247.612 L 527.688 243.216 L 529.737 243.209 L 529.737 243.209 Z  M 546.88 243.15 L 546.953 264.552 L 544.581 264.56 L 544.529 249.306 L 544.529 249.306 Q 544.523 247.403 544.634 245.705 L 544.634 245.705 L 544.634 245.705 Q 544.328 246.013 543.948 246.351 L 543.948 246.351 L 543.948 246.351 Q 543.569 246.689 540.474 249.218 L 540.474 249.218 L 539.18 247.553 L 544.83 243.157 L 546.88 243.15 L 546.88 243.15 Z " fill-rule="evenodd" fill="rgb(0,0,0)"/><g><line x1="214.593" y1="340.691" x2="231.729" y2="357.477" vector-effect="non-scaling-stroke" stroke-width="1" stroke="rgb(0,0,0)" stroke-linejoin="miter" stroke-linecap="square" stroke-miterlimit="3"/><line x1="231.729" y1="340.691" x2="214.593" y2="357.477" vector-effect="non-scaling-stroke" stroke-width="1" stroke="rgb(0,0,0)" stroke-linejoin="miter" stroke-linecap="square" stroke-miterlimit="3"/></g><g><line x1="263.535" y1="340.691" x2="280.671" y2="357.477" vector-effect="non-scaling-stroke" stroke-width="1" stroke="rgb(0,0,0)" stroke-linejoin="miter" stroke-linecap="square" stroke-miterlimit="3"/><line x1="280.671" y1="340.691" x2="263.535" y2="357.477" vector-effect="non-scaling-stroke" stroke-width="1" stroke="rgb(0,0,0)" stroke-linejoin="miter" stroke-linecap="square" stroke-miterlimit="3"/></g></g></g></svg>